<?xml version="1.0" encoding="UTF-8"?>
<svg id="Layer_1" data-name="Layer 1" xmlns="http://www.w3.org/2000/svg" viewBox="0 0 324 144">
  <defs>
    <style>
      .cls-1 {
        fill: #6dc49b;
      }

      .cls-2 {
        fill: #362d1a;
      }

      .cls-3 {
        fill: #e4785d;
      }

      .cls-4 {
        fill: #fff;
      }

      .cls-5 {
        fill: #5b823a;
      }

      .cls-6 {
        fill: #f8be7e;
      }

      .cls-7 {
        fill: #75a357;
      }

      .cls-8 {
        fill: #4c765f;
      }
    </style>
  </defs>
  <g>
    <g>
      <g>
        <path class="cls-3" d="M35.23,119.29c-3.25-3.57-5.22-7.65-5.78-11.86-4.11-.35-8.05-2.01-11.75-4.95l-7.5-5.97,6.41-7.12c.98-1.09,6.32-6.54,14.9-6.54.53,0,1.06.02,1.59.07v-32.91c0-10.46,9.1-18.98,20.29-18.98h220.8c.14-1.74.6-3.45,1.39-5.07,2.35-4.84,7.35-7.96,12.73-7.96,1.51,0,2.99.24,4.4.7,2.24-2.06,5.22-3.28,8.34-3.28,1.85,0,3.7.43,5.37,1.24,2.94,1.43,5.16,3.93,6.23,7.03.81,2.34.89,4.81.27,7.15,4.9,4.76,6.4,12.29,3.28,18.71-2.7,5.54-8.42,9.12-14.59,9.12-.49,0-.98-.02-1.46-.06v36.81c0,10.46-9.1,18.98-20.29,18.98H51.87c-.93,1.92-2.14,3.69-3.5,5.1l-6.67,6.88-6.46-7.08Z"/>
        <path class="cls-4" d="M41.69,127h0c-.17,0-.34-.08-.45-.2l-6.46-7.08c-3.18-3.49-5.21-7.53-5.87-11.71-4.05-.44-7.95-2.14-11.59-5.03l-7.5-5.97c-.14-.11-.22-.27-.23-.44-.01-.17.04-.34.16-.47l6.41-7.12c1.01-1.13,6.52-6.75,15.37-6.75.32,0,.64,0,.97.02v-32.24c0-10.81,9.38-19.6,20.92-19.6h220.23c.2-1.63.66-3.21,1.39-4.71,2.46-5.05,7.67-8.31,13.29-8.31,1.45,0,2.88.21,4.25.62,2.37-2.07,5.37-3.2,8.5-3.2,1.94,0,3.89.45,5.64,1.3,3.1,1.51,5.42,4.13,6.54,7.38.8,2.33.93,4.8.37,7.16,5.01,5.08,6.28,12.74,3.15,19.17-2.92,6-9.25,9.79-15.98,9.45v36.14c0,10.81-9.38,19.6-20.92,19.6H52.25c-.94,1.86-2.13,3.55-3.44,4.91l-6.67,6.88c-.12.12-.28.19-.45.19ZM11.11,96.44l6.98,5.55c3.59,2.86,7.43,4.48,11.41,4.81.29.02.53.25.57.54.54,4.1,2.48,8.09,5.62,11.52h0l6.01,6.59,6.21-6.4c1.3-1.35,2.48-3.05,3.39-4.93.1-.22.32-.35.56-.35h227.99c10.84,0,19.67-8.23,19.67-18.35v-36.81c0-.18.07-.34.2-.46.13-.12.31-.18.48-.16,6.42.57,12.63-2.96,15.43-8.71,2.95-6.06,1.68-13.29-3.15-17.99-.16-.16-.23-.39-.17-.61.6-2.23.51-4.58-.25-6.79-1.02-2.94-3.11-5.31-5.91-6.67-1.58-.77-3.34-1.18-5.09-1.18-2.93,0-5.74,1.11-7.92,3.12-.17.16-.41.21-.62.13-1.35-.45-2.77-.67-4.21-.67-5.14,0-9.91,2.99-12.16,7.61-.75,1.53-1.19,3.16-1.33,4.84-.03.33-.3.58-.62.58H53.4c-10.84,0-19.67,8.23-19.67,18.35v32.91c0,.17-.07.34-.2.46-.13.12-.3.18-.48.16-.51-.04-1.03-.06-1.54-.06-8.32,0-13.49,5.28-14.44,6.33l-5.97,6.63Z"/>
      </g>
      <g>
        <path class="cls-4" d="M307.33,32.25c.27-.36.5-.75.71-1.16.91-1.86,1.03-3.97.36-5.93-.68-1.96-2.08-3.54-3.94-4.44-1.05-.51-2.23-.78-3.39-.78-2.95,0-5.69,1.71-6.98,4.37-.02.04-.03.07-.05.11-.47-.35-.97-.66-1.51-.92-1.33-.65-2.74-.97-4.21-.97-3.66,0-7.07,2.13-8.67,5.42-1.13,2.31-1.28,4.93-.44,7.36.03.08.07.16.1.24H53.4c-8.7,0-15.78,6.49-15.78,14.47v38.61c-2-.83-4.04-1.26-6.1-1.26-6.81,0-11.09,4.53-11.55,5.05l-3.21,3.56,3.75,2.98c3.36,2.68,6.92,4.03,10.57,4.03,1.03,0,1.99-.12,2.9-.3-.75,4.71.83,9.46,4.58,13.57l3.23,3.54,3.34-3.44c1.35-1.39,2.84-3.66,3.67-6.47h231.06c8.7,0,15.78-6.49,15.78-14.47v-42.91c.28.16.56.33.85.47,1.61.78,3.33,1.18,5.12,1.18,4.45,0,8.58-2.58,10.53-6.59,2.73-5.6.55-12.32-4.82-15.32Z"/>
        <path class="cls-6" d="M41.78,120.7l-3.68-4.03c-3.66-4.02-5.33-8.57-4.85-13.22-.74.11-1.45.16-2.17.16-3.79,0-7.48-1.4-10.96-4.17l-4.27-3.4,3.65-4.06c.48-.54,4.93-5.26,12.02-5.26,1.83,0,3.66.33,5.48.97v-37.7c0-8.32,7.36-15.09,16.41-15.09h225.02c-.68-2.42-.45-4.97.66-7.25,1.71-3.51,5.33-5.77,9.23-5.77,1.56,0,3.07.35,4.49,1.04.34.17.67.35,1,.56,1.49-2.56,4.27-4.18,7.26-4.18,1.26,0,2.53.29,3.67.85,2.01.98,3.53,2.69,4.26,4.8.73,2.12.59,4.39-.39,6.41-.11.23-.24.46-.38.69,5.26,3.33,7.24,10.14,4.49,15.8-2.05,4.22-6.41,6.94-11.09,6.94-1.86,0-3.66-.41-5.34-1.22v41.85c0,8.32-7.36,15.09-16.41,15.09H49.26c-.77,2.38-2.1,4.65-3.68,6.28l-3.8,3.92ZM34.74,101.89l-.14.89c-.73,4.56.8,9.07,4.42,13.05l2.78,3.05,2.87-2.96c.73-.75,2.53-2.86,3.52-6.21l.13-.45h231.53c8.36,0,15.16-6.21,15.16-13.84v-44.01l.95.56c.26.16.53.31.81.44,1.52.74,3.15,1.12,4.84,1.12,4.21,0,8.13-2.45,9.97-6.23,2.56-5.27.56-11.64-4.56-14.5l-.62-.35.42-.57c.25-.35.47-.71.65-1.07.83-1.71.95-3.65.33-5.45-.62-1.8-1.91-3.25-3.62-4.09-.97-.47-2.05-.72-3.12-.72-2.71,0-5.23,1.58-6.42,4.01-.02.04-.03.07-.04.1l-.33.69-.61-.45c-.47-.35-.93-.63-1.41-.86-1.24-.6-2.57-.91-3.94-.91-3.43,0-6.61,1.99-8.11,5.07-1.05,2.17-1.2,4.61-.41,6.88.01.03.02.06.04.09.02.04.04.09.06.14l.31.84H53.4c-8.36,0-15.16,6.21-15.16,13.84v39.55l-.87-.36c-1.94-.8-3.91-1.21-5.86-1.21-6.54,0-10.64,4.35-11.09,4.84l-2.76,3.07,3.23,2.57c3.25,2.59,6.67,3.9,10.18,3.9.91,0,1.82-.09,2.78-.29l.89-.18Z"/>
      </g>
      <g>
        <path class="cls-4" d="M279.86,40.05H53.4c-6.2,0-11.27,4.48-11.27,9.96v44.08h237.73c6.2,0,11.27-4.48,11.27-9.96v-44.08h-11.27Z"/>
        <path class="cls-8" d="M279.86,94.72H41.5v-44.71c0-5.84,5.34-10.58,11.9-10.58h238.36v44.71c0,5.84-5.34,10.58-11.9,10.58ZM42.75,93.46h237.11c5.87,0,10.65-4.19,10.65-9.33v-43.46H53.4c-5.87,0-10.65,4.19-10.65,9.33v43.46Z"/>
      </g>
      <g>
        <path class="cls-5" d="M288.3,37.59c-.8,0-1.61-.18-2.37-.55-1.31-.64-2.29-1.74-2.76-3.12-.47-1.37-.39-2.85.25-4.16,1.31-2.7,4.58-3.83,7.27-2.51,2.7,1.31,3.82,4.58,2.51,7.27h0c-.94,1.93-2.88,3.06-4.9,3.06ZM288.31,27.34c-.53,0-1.06.09-1.58.27-1.22.42-2.2,1.29-2.76,2.44-.56,1.16-.64,2.46-.22,3.68.42,1.22,1.29,2.2,2.44,2.76,2.39,1.16,5.27.16,6.44-2.22h0c1.16-2.39.16-5.27-2.22-6.44-.67-.32-1.38-.49-2.1-.49Z"/>
        <path class="cls-5" d="M301.61,49.97c-1.12,0-2.24-.26-3.28-.76-1.8-.88-3.16-2.41-3.81-4.3-.65-1.9-.53-3.93.35-5.74.88-1.8,2.41-3.16,4.3-3.81,1.9-.65,3.93-.53,5.74.35,1.8.88,3.16,2.41,3.81,4.3.65,1.9.53,3.93-.35,5.74h0c-.88,1.8-2.41,3.16-4.3,3.81-.8.28-1.63.42-2.46.42ZM301.62,35.57c-.76,0-1.52.13-2.25.38-1.74.6-3.14,1.84-3.94,3.49-.8,1.65-.92,3.52-.32,5.26s1.84,3.14,3.49,3.94c3.41,1.66,7.54.23,9.2-3.18h0c.8-1.65.92-3.52.32-5.26s-1.84-3.14-3.49-3.94c-.95-.46-1.98-.7-3.01-.7Z"/>
        <path class="cls-5" d="M301.05,31.26c-.52,0-1.05-.11-1.55-.36-.86-.42-1.5-1.14-1.81-2.04-.31-.9-.25-1.87.16-2.72.42-.86,1.14-1.5,2.04-1.81.9-.31,1.87-.25,2.72.16.86.42,1.5,1.14,1.81,2.04.31.9.25,1.87-.16,2.72h0c-.62,1.27-1.89,2-3.21,2ZM301.06,24.76c-.32,0-.65.05-.96.16-.74.26-1.34.79-1.68,1.49-.34.71-.39,1.5-.14,2.24.26.74.79,1.34,1.49,1.68.7.34,1.5.39,2.24.13.74-.26,1.34-.79,1.68-1.49h0c.34-.71.39-1.5.14-2.24-.26-.74-.79-1.34-1.49-1.68-.41-.2-.84-.3-1.28-.3Z"/>
      </g>
      <path class="cls-7" d="M39.29,94.72s-6.86,7.95-15.97.7c0,0,6.76-7.51,15.97-.7Z"/>
      <path class="cls-7" d="M41.51,97.22s-7.47,7.38.38,15.98c0,0,7.04-7.25-.38-15.98Z"/>
    </g>
    <g>
      <path class="cls-2" d="M53.67,97.81c.24-.01.5-.01.74-.01.08,0,.16-.01.24-.01.13-.01.27.01.4.01.26.01.53,0,.8,0h.26c.18,0,.34.04.49.13.07.04.15.08.22.12.07.03.13.09.19.15.05.08.11.16.15.24.04.09.07.19.07.3,0,.15.01.3.01.44.04.65.04,1.29.03,1.93,0,.19-.01.36-.03.54-.01.08-.03.18-.05.26-.07.16-.15.31-.26.43-.03.04-.07.07-.11.09s-.07.05-.11.08c.01.12.05.24.09.38.05.19.11.39.15.59.03.09.04.19.07.3.05.32.12.65.2.97.01.11.04.2.07.3.03.07.01.13-.05.18-.07.03-.13.04-.2.04h-.85c-.11,0-.2-.03-.31-.03-.01-.03-.03-.05-.04-.09-.03-.12-.05-.24-.08-.36-.05-.26-.12-.5-.19-.74-.04-.18-.11-.34-.15-.51-.04-.22-.08-.42-.13-.62-.01-.05-.03-.11-.04-.15-.11-.03-.38-.03-.54-.01,0,.03-.01.05-.01.08v2.18c0,.08-.03.15-.04.22-.01.03-.04.04-.05.07h-1.28s-.05-.08-.05-.13c0-.12-.01-.24-.01-.35,0-.15.01-.28,0-.42-.04-.54-.04-1.08-.01-1.62.01-.51.01-1.02.03-1.54,0-.32-.01-.63-.01-.96,0-.2.01-.42.01-.63,0-.09.01-.19.01-.28s-.01-.2-.01-.3v-.77s0-.09.01-.13v-.18c0-.05-.01-.11.03-.18h.38ZM54.68,99.32v2.02s0,.07.04.09c.01.01.03.01.05.01h.67s.07,0,.09-.01c.18-.03.24-.11.26-.28.01-.2.01-.4.03-.61,0-.22-.01-.44-.01-.66,0-.2-.01-.4-.01-.59,0-.09-.04-.16-.12-.2-.04-.01-.07-.04-.11-.05-.11-.03-.22-.04-.32-.05h-.43s-.08,0-.13.04v.3Z"/>
      <path class="cls-2" d="M64.02,98.89c-.05.04-.11.07-.16.07h-.27c-.31,0-.63.01-.96.01-.11,0-.23.01-.34.01-.03.01-.03.04-.03.07,0,.26,0,.5-.01.74v.15c.01.12.01.24.01.36,0,0,.01.01.01.03h.04c.15.01.3.01.44.01h.34c.08,0,.16-.01.23-.01.15,0,.31.01.46.01.01,0,.03.01.04.01,0,.22.01.42.01.63v.63c-.14.01-.26.04-.38.04h-1.2s-.01.04-.01.07v.34c0,.28,0,.55-.01.82-.01.23.01.46,0,.69,0,.13.01.26.01.39v.07s.05.01.08.01h.36c.23,0,.44.01.67.01.13,0,.27.01.42.01.07.01.13.01.19.03.05.4.05.79.04,1.2-.03,0-.04.01-.05.01-.39,0-.78.01-1.16.01h-1.28c-.08,0-.17-.03-.26-.03-.09-.01-.19-.01-.3-.01h-.08s-.03-.04-.04-.05v-.03c-.01-.38-.01-.75-.01-1.13v-.39c-.03-.32-.03-.66-.03-1,.01-.22,0-.42,0-.63,0-.09,0-.2.01-.3.01-.22,0-.42,0-.62,0-.13-.01-.26-.01-.39-.01-.09,0-.18,0-.27,0-.22,0-.44.01-.66.01-.23.03-.46.03-.69-.01-.2-.01-.4-.01-.61,0-.18,0-.35.01-.54,0-.05.01-.11.03-.16.01-.04.04-.07.08-.07h2.72c.08,0,.18,0,.26-.01h.11c.01.39,0,.77-.03,1.15Z"/>
      <path class="cls-2" d="M70.59,101.62c-.11.01-.22.03-.31.03h-1.25c0,.07-.01.15-.01.22v.62c0,.27-.01.54-.01.82.01.34.01.67.01,1.01,0,.12-.01.24-.03.35v.35c-.01.05,0,.11,0,.16-.01.07-.03.09-.11.09-.04,0-.09,0-.14.01-.32,0-.63,0-.94.01h-.12c-.05-.01-.09-.04-.11-.09v-.09c-.01-.16-.01-.32-.01-.49v-.49c0-.13,0-.27.01-.4.01-.04,0-.08.01-.12,0-.3-.01-.58,0-.86v-.67s0-.08,0-.12c0-.01.01-.04,0-.05-.01-.07,0-.12,0-.19,0-.05.01-.11.01-.16,0-.18,0-.35-.01-.51,0-.2-.01-.39-.01-.59-.01-.07,0-.12,0-.19v-.9c.01-.11.01-.22.01-.32,0-.15,0-.31-.01-.46v-.46s.01-.08.03-.11c0-.07.01-.12.01-.2.03-.04.07-.07.12-.08.07-.01.13-.01.2-.01h1.86c.13,0,.27-.01.39-.01.19.01.36.01.55.01.01,0,.03.01.03.01.04.03.04.07.04.11-.01.08-.01.16,0,.24,0,.07-.01.12-.01.17,0,.22-.01.42-.01.62-.04.04-.08.05-.13.07h-.03c-.39,0-.8.01-1.19.01-.12,0-.24.01-.36.01-.04.03-.04.05-.04.09v1.19s0,.04.01.05.03.01.04.01c.15.01.3.01.44.01h.26c.15,0,.3,0,.46-.01.09-.01.17-.01.26,0,.04,0,.08.01.11.04,0,.42.03.84,0,1.25,0,0,0,.01-.01.01Z"/>
      <path class="cls-2" d="M74.54,97.82h1.2s.03.07.03.09c.01.09.01.2.01.3v3.33c0,.07-.01.12-.03.19v.05c.03.12,0,.26.01.38.01.11.01.22.01.31v.24c.01.16.01.34.01.51.01.16-.01.32-.01.49v1.35c0,.08-.03.16-.05.24-.05.03-.11.01-.15.01-.19,0-.39-.01-.58,0-.16.01-.34.01-.5.01h-.09c-.05-.04-.07-.08-.07-.13v-.39c0-.18.01-.34,0-.51-.03-.28-.01-.57-.03-.85,0-.11,0-.2.01-.31.03-.57.01-1.13.03-1.7,0-.2.01-.4.01-.61,0-.17-.03-.35-.03-.51,0-.2,0-.39.01-.59.01-.18.01-.34.01-.51,0-.11-.01-.2-.01-.3,0-.23.01-.47.01-.69v-.2c0-.05,0-.11.03-.17.05-.01.11-.03.15-.03Z"/>
      <path class="cls-2" d="M80.67,97.76s.04.01.05.01c.04.03.04.08.04.12.01.09.01.19.01.28v1.08c0,.27-.01.54.01.81.01.31.01.62.01.93,0,.07-.01.13-.01.22,0,.04-.01.08,0,.12.01.08.01.15.01.23v.58c0,.09,0,.19-.01.28-.01.04-.01.09,0,.15.03.16.01.34.01.51,0,.24-.01.49-.03.73v.24s.05.03.08.03c.15,0,.28,0,.43.03.22-.01.44.01.67-.01.07-.01.13-.01.22-.01.05,0,.11,0,.16.01.04,0,.08.01.11.03.03.11.04.93.03,1.17-.03.01-.05.03-.07.03-.13.01-.27.01-.4.01h-.61c-.63.01-1.25.01-1.89.01h-.05c-.05-.03-.08-.05-.11-.11v-.38c-.01-.19,0-.39-.01-.58-.03-.38-.01-.75-.01-1.13,0-.23.01-.46.01-.69.01-.34.01-.66.01-1,0-.07,0-.13.01-.2v-.44c0-.07-.01-.15-.01-.22v-.7c0-.07,0-.13.01-.2v-.07c0-.16.01-.34,0-.49-.01-.12-.01-.24-.01-.36,0-.09.01-.2.01-.3v-.58c0-.07.03-.11.11-.13.39,0,.8,0,1.2-.01Z"/>
      <path class="cls-2" d="M87.35,97.76s.04.01.05.01c.04.03.04.08.04.12.01.09.01.19.01.28v1.08c0,.27-.01.54.01.81.01.31.01.62.01.93,0,.07-.01.13-.01.22,0,.04-.01.08,0,.12.01.08.01.15.01.23v.58c0,.09,0,.19-.01.28-.01.04-.01.09,0,.15.03.16.01.34.01.51,0,.24-.01.49-.03.73v.24s.05.03.08.03c.15,0,.28,0,.43.03.22-.01.44.01.67-.01.07-.01.13-.01.22-.01.05,0,.11,0,.16.01.04,0,.08.01.11.03.03.11.04.93.03,1.17-.03.01-.05.03-.07.03-.13.01-.27.01-.4.01h-.61c-.63.01-1.25.01-1.89.01h-.05c-.05-.03-.08-.05-.11-.11v-.38c-.01-.19,0-.39-.01-.58-.03-.38-.01-.75-.01-1.13,0-.23.01-.46.01-.69.01-.34.01-.66.01-1,0-.07,0-.13.01-.2v-.44c0-.07-.01-.15-.01-.22v-.7c0-.07,0-.13.01-.2v-.07c0-.16.01-.34,0-.49-.01-.12-.01-.24-.01-.36,0-.09.01-.2.01-.3v-.58c0-.07.03-.11.11-.13.39,0,.8,0,1.2-.01Z"/>
      <path class="cls-2" d="M95.89,98.89c-.05.04-.11.07-.16.07h-.27c-.31,0-.63.01-.96.01-.11,0-.23.01-.34.01-.03.01-.03.04-.03.07,0,.26,0,.5-.01.74v.15c.01.12.01.24.01.36,0,0,.01.01.01.03h.04c.15.01.3.01.44.01h.34c.08,0,.16-.01.23-.01.15,0,.31.01.46.01.01,0,.03.01.04.01,0,.22.01.42.01.63v.63c-.14.01-.26.04-.38.04h-1.2s-.01.04-.01.07v.34c0,.28,0,.55-.01.82-.01.23.01.46,0,.69,0,.13.01.26.01.39v.07s.05.01.08.01h.36c.23,0,.44.01.67.01.13,0,.27.01.42.01.07.01.13.01.19.03.05.4.05.79.04,1.2-.03,0-.04.01-.05.01-.39,0-.78.01-1.16.01h-1.28c-.08,0-.17-.03-.26-.03-.09-.01-.19-.01-.3-.01h-.08s-.03-.04-.04-.05v-.03c-.01-.38-.01-.75-.01-1.13v-.39c-.03-.32-.03-.66-.03-1,.01-.22,0-.42,0-.63,0-.09,0-.2.01-.3.01-.22,0-.42,0-.62,0-.13-.01-.26-.01-.39-.01-.09,0-.18,0-.27,0-.22,0-.44.01-.66.01-.23.03-.46.03-.69-.01-.2-.01-.4-.01-.61,0-.18,0-.35.01-.54,0-.05.01-.11.03-.16.01-.04.04-.07.08-.07h2.72c.08,0,.18,0,.26-.01h.11c.01.39,0,.77-.03,1.15Z"/>
      <path class="cls-2" d="M99.91,97.81c.24-.01.5-.01.74-.01.08,0,.16-.01.24-.01.13-.01.27.01.4.01.26.01.53,0,.8,0h.26c.18,0,.34.04.49.13.07.04.15.08.22.12.07.03.13.09.19.15.05.08.11.16.15.24.04.09.07.19.07.3,0,.15.01.3.01.44.04.65.04,1.29.03,1.93,0,.19-.01.36-.03.54-.01.08-.03.18-.05.26-.07.16-.15.31-.26.43-.03.04-.07.07-.11.09s-.07.05-.11.08c.01.12.05.24.09.38.05.19.11.39.15.59.03.09.04.19.07.3.05.32.12.65.2.97.01.11.04.2.07.3.03.07.01.13-.05.18-.07.03-.13.04-.2.04h-.85c-.11,0-.2-.03-.31-.03-.01-.03-.03-.05-.04-.09-.03-.12-.05-.24-.08-.36-.05-.26-.12-.5-.19-.74-.04-.18-.11-.34-.15-.51-.04-.22-.08-.42-.13-.62-.01-.05-.03-.11-.04-.15-.11-.03-.38-.03-.54-.01,0,.03-.01.05-.01.08v2.18c0,.08-.03.15-.04.22-.01.03-.04.04-.05.07h-1.28s-.05-.08-.05-.13c0-.12-.01-.24-.01-.35,0-.15.01-.28,0-.42-.04-.54-.04-1.08-.01-1.62.01-.51.01-1.02.03-1.54,0-.32-.01-.63-.01-.96,0-.2.01-.42.01-.63,0-.09.01-.19.01-.28s-.01-.2-.01-.3v-.77s0-.09.01-.13v-.18c0-.05-.01-.11.03-.18h.38ZM100.92,99.32v2.02s0,.07.04.09c.01.01.03.01.05.01h.67s.07,0,.09-.01c.18-.03.24-.11.26-.28.01-.2.01-.4.03-.61,0-.22-.01-.44-.01-.66,0-.2-.01-.4-.01-.59,0-.09-.04-.16-.12-.2-.04-.01-.07-.04-.11-.05-.11-.03-.22-.04-.32-.05h-.43s-.08,0-.13.04v.3Z"/>
      <path class="cls-2" d="M106.93,97.77c.08,0,.16-.01.26-.01h.07c.22.01.43.01.65.01.01,0,.03.01.04.01.03.04.03.08.04.12.09.31.19.62.3.92.07.2.15.4.2.61.08.2.13.42.19.62.04.11.07.22.09.34.03.04.04.09.08.13.03,0,.04-.01.04-.03.04-.09.08-.2.11-.3.07-.22.14-.43.2-.63.05-.16.11-.32.16-.49.05-.15.11-.3.15-.44.08-.24.16-.49.23-.74.01-.04.03-.08.09-.11.13,0,.28-.01.43-.01h.44c.15,0,.28.01.43.01.03.05.01.11,0,.15-.12.4-.23.81-.38,1.2-.03.07-.05.16-.08.23h0c-.08.31-.17.59-.27.89-.07.2-.14.4-.2.61-.07.19-.11.36-.16.54-.04.12-.08.23-.12.35-.09.34-.2.69-.31,1.04-.03.07-.04.15-.04.23v2.02c0,.09-.03.18-.07.27h-.11c-.08.01-.17.01-.26.01-.26,0-.53.03-.78.01h-.11c-.08,0-.11-.04-.12-.11v-.54c0-.16-.01-.31-.01-.46-.01-.43-.01-.85,0-1.27,0-.12-.03-.24-.05-.35-.13-.39-.24-.77-.36-1.15-.09-.31-.19-.62-.28-.93-.05-.16-.12-.31-.18-.47-.07-.22-.13-.42-.19-.63-.04-.19-.12-.38-.19-.57-.05-.18-.11-.36-.16-.55-.01-.04-.03-.09-.04-.13-.04-.12-.03-.23-.01-.35.09-.04.19-.05.28-.05Z"/>
      <path class="cls-2" d="M116.93,100.5c-.08-.02-.14-.06-.21-.12-.03-.03-.07-.06-.12-.09-.15-.13-.23-.29-.24-.49-.01-.12,0-.23,0-.35,0-.08-.01-.16-.01-.24,0-.06-.01-.12.01-.17v-.55c0-.19.05-.36.1-.55,0-.01.01-.02.01-.03.06-.23.22-.38.39-.53.02-.02.05-.05.08-.07.1-.08.22-.12.35-.14.09-.02.19-.03.29-.03.26,0,.52,0,.78.01.07,0,.14,0,.21.01h.06c.2,0,.37.08.52.21.16.13.3.29.37.5.03.09.06.19.08.29,0,.06.01.1.02.15.01.09.01.19.02.27,0,.1.01.22.01.33.01.03.01.08-.01.13-.01,0-.03.01-.06.01-.17.01-.34.02-.51.03-.13.01-.26.03-.38.05h-.19s-.06-.09-.06-.14c0-.09-.01-.17-.01-.27-.01-.06-.02-.12-.05-.17-.03-.07-.09-.12-.16-.14-.05-.01-.09-.01-.14-.01-.09-.01-.19-.01-.28-.01-.12.01-.2.08-.22.19-.01.09-.03.17-.02.26,0,.22,0,.43-.01.65,0,.07.01.14.03.2.06.19.19.28.36.33.15.03.31.05.46.05.28,0,.57,0,.85-.01.21,0,.42.01.63.01.02,0,.06,0,.09.01v.07c.01.12,0,.23.02.35.01,0,.01.01.01.02,0,.21.01.43.01.64,0,.03,0,.06-.01.08-.02.03-.06.03-.09.03-.08.01-.16.01-.24.01h-.07s-.01.05-.01.06c0,.16-.01.31,0,.46,0,.1.01.21.01.31v.42c0,.14,0,.29.02.44.01.02,0,.05,0,.07,0,.23.01.45,0,.69-.01.19-.01.37-.06.56-.02.08-.03.17-.06.26-.02.09-.06.19-.12.27-.05.07-.09.13-.14.19-.15.17-.35.28-.56.33-.03.01-.06,0-.09.01-.03,0-.07-.01-.1,0-.12.02-.23.02-.35.02h-.55c-.12,0-.23-.01-.35-.03-.14-.02-.27-.08-.38-.16-.12-.09-.21-.2-.3-.31-.06-.06-.09-.14-.12-.22-.07-.16-.1-.31-.13-.48-.01-.06-.01-.1-.01-.16v-1.13c0-.15-.01-.29-.02-.43,0-.14,0-.28.01-.41.01-.12.01-.22.01-.34v-.44c.01-.07.01-.13.03-.19.02-.09.07-.16.13-.23.08-.07.16-.13.26-.17.07-.02.15-.06.22-.08-.01-.03-.03-.03-.05-.05ZM118.3,104.02c.07-.06.13-.13.15-.23.01-.08.02-.17.02-.27v-1.18c0-.13,0-.24.01-.36.01-.09,0-.19,0-.28,0-.07-.01-.14-.01-.21-.01-.07,0-.14,0-.2,0-.02,0-.05-.03-.07-.14,0-.29.01-.43,0-.09,0-.17.02-.26.06-.09.05-.16.12-.19.22-.02.09-.03.19-.03.28v.52c.02.1.01.21.01.31-.01.05-.01.09-.01.14,0,.14.01.28.01.42v.56c.01.12.05.22.12.31.02.01.06.02.09.02.15.01.31.01.46,0,.02-.01.06-.03.08-.05Z"/>
      <path class="cls-2" d="M128.05,100.02s-.05-.07-.05-.12.01-.11.01-.18c0-.08-.01-.16-.01-.24-.01-.09-.03-.19-.04-.28,0-.03-.01-.05-.04-.08-.07-.08-.15-.12-.26-.16-.13-.04-.28-.04-.43-.03-.12,0-.26.04-.36.13-.05.03-.08.09-.09.15s-.01.11-.01.16c-.01.54-.01,1.08-.01,1.6v1.93c0,.13-.01.27-.03.4v.04c0,.09.01.19,0,.28,0,.15.08.27.22.34.09.04.2.08.32.07h.66s.01-.03.01-.03c.01-.11.04-.2.01-.31v-.04c.01-.08,0-.16,0-.24q0-.17.01-.36v-.05c.01-.31.01-.34.03-.63v-.26c-.19-.01-.38,0-.55-.03-.04-.05-.05-.09-.05-.16,0-.11-.01-.23-.01-.34,0-.15.01-.28.01-.42v-.22s0-.03.01-.05c0-.07.04-.09.11-.11.2,0,.42,0,.62-.01.15,0,.3.01.44.01.24,0,.49-.01.71-.01h.05s.04.03.07.03v.05c.01.32.01.63.03.96,0,.32.01.63.01.93,0,.36,0,.28-.01.65,0,.2-.01.4-.01.61-.01.28-.01.57-.03.85,0,.12-.01.23-.01.34v.05s-.05.01-.07.01c-.03.01-.04.01-.07.01-.27,0-.53,0-.78.01-.12,0-.24.01-.35.01-.2,0-.39.01-.58.01-.24,0-.47.01-.71.01-.17,0-.35-.01-.54-.05-.27-.03-.5-.15-.7-.34-.03-.03-.04-.07-.07-.09-.04-.08-.09-.18-.13-.26-.04-.08-.04-.16-.05-.24-.03-.13-.01-.28-.01-.42,0-.15-.01-.31-.01-.46,0-.13.01-.27.01-.4,0-.16-.01-.31-.01-.47v-.42c0-.39,0-.8-.01-1.19,0-.2,0-.4-.01-.59,0-.19,0-.38-.01-.57v-.44c0-.11,0-.22.01-.34.01-.15.03-.31.05-.46.01-.07.04-.12.07-.18.07-.13.15-.26.26-.36.01-.03.04-.04.07-.07.23-.15.47-.24.74-.27.17-.01.34-.03.51-.03.19,0,.38-.01.58-.01.15,0,.31,0,.47.03.19.01.38.01.55.08.11.04.22.08.32.13.12.07.23.15.28.28.05.07.09.15.13.23.05.09.09.2.09.32v.79s0,.08-.01.12c0,.07-.01.13,0,.2,0,.07,0,.12-.04.19-.43-.01-.86-.01-1.29-.03Z"/>
      <path class="cls-2" d="M136.16,98.89c-.05.04-.11.07-.16.07h-.27c-.31,0-.63.01-.96.01-.11,0-.23.01-.34.01-.03.01-.03.04-.03.07,0,.26,0,.5-.01.74v.15c.01.12.01.24.01.36,0,0,.01.01.01.03h.04c.15.01.3.01.44.01h.34c.08,0,.16-.01.23-.01.15,0,.31.01.46.01.01,0,.03.01.04.01,0,.22.01.42.01.63v.63c-.14.01-.26.04-.38.04h-1.2s-.01.04-.01.07v.34c0,.28,0,.55-.01.82-.01.23.01.46,0,.69,0,.13.01.26.01.39v.07s.05.01.08.01h.36c.23,0,.44.01.67.01.13,0,.27.01.42.01.07.01.13.01.19.03.05.4.05.79.04,1.2-.03,0-.04.01-.05.01-.39,0-.78.01-1.16.01h-1.28c-.08,0-.17-.03-.26-.03-.09-.01-.19-.01-.3-.01h-.08s-.03-.04-.04-.05v-.03c-.01-.38-.01-.75-.01-1.13v-.39c-.03-.32-.03-.66-.03-1,.01-.22,0-.42,0-.63,0-.09,0-.2.01-.3.01-.22,0-.42,0-.62,0-.13-.01-.26-.01-.39-.01-.09,0-.18,0-.27,0-.22,0-.44.01-.66.01-.23.03-.46.03-.69-.01-.2-.01-.4-.01-.61,0-.18,0-.35.01-.54,0-.05.01-.11.03-.16.01-.04.04-.07.08-.07h2.72c.08,0,.18,0,.26-.01h.11c.01.39,0,.77-.03,1.15Z"/>
      <path class="cls-2" d="M142.48,100.81v-.82c0-.54.01-1.08.01-1.62v-.38s0-.08.05-.12c.03,0,.05-.01.09-.01.22,0,.42-.01.63-.01h.49s.08,0,.12.01c0,.03.01.04.01.07,0,.05.01.09.01.15,0,.03.01.05.01.08,0,.51-.03,1.02-.01,1.54.01.32.03.65.01.97-.03.55-.03,1.1-.03,1.67v.32c0,.11.01.2.01.31.04.51.01,1.02.01,1.54-.01.12,0,.24-.01.36-.01.08-.01.15-.01.22,0,.09,0,.18-.04.24-.07.03-.15.01-.23.01-.05,0-.12-.01-.18-.01h-.79c-.05,0-.11,0-.16-.01-.01-.05,0-.09,0-.15-.01-.3-.01-.59,0-.9,0-.09-.03-.16-.07-.24-.07-.12-.13-.24-.19-.36-.09-.22-.22-.43-.35-.63-.01-.03-.03-.05-.04-.08-.11-.2-.22-.39-.31-.59-.08-.16-.16-.31-.24-.47-.03-.05-.04-.09-.09-.13v.05c-.01.55-.01,1.12,0,1.67,0,.44,0,.89-.01,1.32,0,.13-.01.26-.01.38,0,.04-.01.08-.04.12-.11.01-.22.03-.32.03h-.74c-.08,0-.16-.01-.24-.03-.01,0-.04-.01-.05-.03s-.01-.03-.01-.04c-.03-.4-.03-.82-.03-1.23-.01-.16-.03-.32-.01-.5.01-.38.01-.77.01-1.15.01-.26,0-.51.01-.75.01-.27.01-.54.01-.81,0-.11-.01-.22-.01-.31v-.51c.01-.08.01-.17.01-.27v-1.67c0-.07.01-.13.07-.17.01-.01.03-.01.05-.01.42,0,.85-.04,1.25.01.05.05.07.11.09.15.09.24.19.47.27.7.07.18.12.36.19.54.12.31.26.63.4.94.09.2.18.4.27.61.03.04.05.09.12.16v-.13Z"/>
      <path class="cls-2" d="M150.66,98.89c-.05.04-.11.07-.16.07h-.27c-.31,0-.63.01-.96.01-.11,0-.23.01-.34.01-.03.01-.03.04-.03.07,0,.26,0,.5-.01.74v.15c.01.12.01.24.01.36,0,0,.01.01.01.03h.04c.15.01.3.01.44.01h.34c.08,0,.16-.01.23-.01.15,0,.31.01.46.01.01,0,.03.01.04.01,0,.22.01.42.01.63v.63c-.14.01-.26.04-.38.04h-1.2s-.01.04-.01.07v.34c0,.28,0,.55-.01.82-.01.23.01.46,0,.69,0,.13.01.26.01.39v.07s.05.01.08.01h.36c.23,0,.44.01.67.01.13,0,.27.01.42.01.07.01.13.01.19.03.05.4.05.79.04,1.2-.03,0-.04.01-.05.01-.39,0-.78.01-1.16.01h-1.28c-.08,0-.17-.03-.26-.03-.09-.01-.19-.01-.3-.01h-.08s-.03-.04-.04-.05v-.03c-.01-.38-.01-.75-.01-1.13v-.39c-.03-.32-.03-.66-.03-1,.01-.22,0-.42,0-.63,0-.09,0-.2.01-.3.01-.22,0-.42,0-.62,0-.13-.01-.26-.01-.39-.01-.09,0-.18,0-.27,0-.22,0-.44.01-.66.01-.23.03-.46.03-.69-.01-.2-.01-.4-.01-.61,0-.18,0-.35.01-.54,0-.05.01-.11.03-.16.01-.04.04-.07.08-.07h2.72c.08,0,.18,0,.26-.01h.11c.01.39,0,.77-.03,1.15Z"/>
      <path class="cls-2" d="M154.67,97.81c.24-.01.5-.01.74-.01.08,0,.16-.01.24-.01.13-.01.27.01.4.01.26.01.53,0,.8,0h.26c.18,0,.34.04.49.13.07.04.15.08.22.12.07.03.13.09.19.15.05.08.11.16.15.24.04.09.07.19.07.3,0,.15.01.3.01.44.04.65.04,1.29.03,1.93,0,.19-.01.36-.03.54-.01.08-.03.18-.05.26-.07.16-.15.31-.26.43-.03.04-.07.07-.11.09s-.07.05-.11.08c.01.12.05.24.09.38.05.19.11.39.15.59.03.09.04.19.07.3.05.32.12.65.2.97.01.11.04.2.07.3.03.07.01.13-.05.18-.07.03-.13.04-.2.04h-.85c-.11,0-.2-.03-.31-.03-.01-.03-.03-.05-.04-.09-.03-.12-.05-.24-.08-.36-.05-.26-.12-.5-.19-.74-.04-.18-.11-.34-.15-.51-.04-.22-.08-.42-.13-.62-.01-.05-.03-.11-.04-.15-.11-.03-.38-.03-.54-.01,0,.03-.01.05-.01.08v2.18c0,.08-.03.15-.04.22-.01.03-.04.04-.05.07h-1.28s-.05-.08-.05-.13c0-.12-.01-.24-.01-.35,0-.15.01-.28,0-.42-.04-.54-.04-1.08-.01-1.62.01-.51.01-1.02.03-1.54,0-.32-.01-.63-.01-.96,0-.2.01-.42.01-.63,0-.09.01-.19.01-.28s-.01-.2-.01-.3v-.77s0-.09.01-.13v-.18c0-.05-.01-.11.03-.18h.38ZM155.68,99.32v2.02s0,.07.04.09c.01.01.03.01.05.01h.67s.07,0,.09-.01c.18-.03.24-.11.26-.28.01-.2.01-.4.03-.61,0-.22-.01-.44-.01-.66,0-.2-.01-.4-.01-.59,0-.09-.04-.16-.12-.2-.04-.01-.07-.04-.11-.05-.11-.03-.22-.04-.32-.05h-.43s-.08,0-.13.04v.3Z"/>
      <path class="cls-2" d="M164.44,102.5h-1.08s-.05.07-.05.11c0,.11,0,.2-.01.3,0,.15,0,.28-.01.4,0,.03,0,.04.01.07v.12c0,.3,0,.58-.01.88,0,.2-.01.38-.03.55,0,.09,0,.2-.01.3v.05s-.07.01-.09.01c-.23.01-.44.01-.67.01-.17,0-.36,0-.55.01h-.05s-.04-.05-.04-.08c0-.15,0-.28-.01-.42-.01-.26,0-.53.01-.8.01-.43,0-.88,0-1.33.01-.38.01-.77-.01-1.16-.01-.53,0-1.04,0-1.55,0-.23.01-.44.01-.67,0-.03.01-.07,0-.12,0-.12.01-.24.04-.38.01-.07.03-.15.04-.23.04-.11.08-.23.15-.32.05-.07.11-.13.16-.2.04-.05.09-.09.16-.12.19-.07.36-.13.55-.2.05-.03.12-.04.19-.04h.53c.16,0,.32-.01.49-.01.16.01.32.01.49.04.2.01.42.05.61.12.04.03.09.03.13.04.12.03.22.08.28.18.05.07.11.12.16.19.01.03.03.05.04.07.09.16.13.32.15.5.03.18.05.34.05.51s.01.35,0,.53c0,.23,0,.44-.01.66-.01.4,0,.81,0,1.23v1.1c0,.24,0,.47-.01.7,0,.18,0,.36-.01.54,0,.23-.01.46-.03.7,0,.13-.01.24-.03.36,0,.09-.05.15-.15.15h-.59s-.08,0-.12-.01c-.12-.01-.26-.01-.39-.01h-.09c-.03-.05-.05-.11-.05-.16-.03-.36-.01-.74-.01-1.1,0-.43.01-.85.01-1.28v-.15s-.01-.03-.01-.05c-.04-.01-.07-.01-.09-.01ZM164.56,101.06v-.46c0-.18,0-.35-.01-.53-.01-.04-.01-.09-.01-.15v-.51c0-.09-.01-.18-.07-.24-.01-.05-.05-.08-.11-.09-.19-.04-.39-.07-.58-.07-.09,0-.17.03-.26.08-.03.01-.05.03-.07.05-.05.07-.09.13-.12.22-.01.08-.03.17-.03.26-.01.16-.01.32-.03.5v.84c.01.07.01.12.03.19.42.03.82-.01,1.25,0v-.08Z"/>
      <path class="cls-2" d="M170.92,97.76s.04.01.05.01c.04.03.04.08.04.12.01.09.01.19.01.28v1.08c0,.27-.01.54.01.81.01.31.01.62.01.93,0,.07-.01.13-.01.22,0,.04-.01.08,0,.12.01.08.01.15.01.23v.58c0,.09,0,.19-.01.28-.01.04-.01.09,0,.15.03.16.01.34.01.51,0,.24-.01.49-.03.73v.24s.05.03.08.03c.15,0,.28,0,.43.03.22-.01.44.01.67-.01.07-.01.13-.01.22-.01.05,0,.11,0,.16.01.04,0,.08.01.11.03.03.11.04.93.03,1.17-.03.01-.05.03-.07.03-.13.01-.27.01-.4.01h-.61c-.63.01-1.25.01-1.89.01h-.05c-.05-.03-.08-.05-.11-.11v-.38c-.01-.19,0-.39-.01-.58-.03-.38-.01-.75-.01-1.13,0-.23.01-.46.01-.69.01-.34.01-.66.01-1,0-.07,0-.13.01-.2v-.44c0-.07-.01-.15-.01-.22v-.7c0-.07,0-.13.01-.2v-.07c0-.16.01-.34,0-.49-.01-.12-.01-.24-.01-.36,0-.09.01-.2.01-.3v-.58c0-.07.03-.11.11-.13.39,0,.8,0,1.2-.01Z"/>
      <path class="cls-2" d="M182.71,99.97c-.38-.04-.74-.04-1.1-.01-.03,0-.04-.03-.08-.03-.01-.09-.03-.19-.03-.28v-.3c0-.09-.04-.18-.08-.26-.04-.07-.09-.12-.19-.15-.03,0-.07-.01-.09-.03-.18-.08-.36-.04-.54.03-.11.04-.16.11-.2.22-.03.09-.04.2-.04.31-.01.09,0,.2.01.3.01.15,0,.3.01.44,0,.09,0,.17.03.27,0,.04.01.08.03.11.03.08.08.13.15.16.09.04.19.05.28.05.26.01.51.03.75.03.13,0,.26,0,.38.03.15.01.27.08.38.16.07.04.12.09.19.13.05.04.09.08.12.13.07.15.15.3.18.46.01.09.03.2.04.31.01.32.03.66.03,1v.88c0,.2-.03.4-.09.59-.11.38-.36.61-.73.71-.15.04-.31.07-.46.07-.22,0-.43.01-.65.01-.23.01-.45.01-.67,0-.17-.01-.34-.03-.51-.08-.03,0-.05,0-.08-.01-.14-.07-.26-.15-.38-.24-.03-.03-.07-.05-.11-.09-.11-.07-.17-.18-.22-.31-.04-.11-.07-.22-.07-.32v-.19c0-.24-.03-.49-.03-.71.01-.05.01-.09.01-.15v-.22s0-.07.04-.09h.08c.16,0,.32,0,.49-.01.2-.03.39-.01.59-.04.05-.01.12-.01.17.04,0,.01.01.04.01.07-.03.09-.03.16,0,.24v.15c0,.13,0,.28.04.42.03.09.07.18.15.23.05.03.12.05.19.07.16,0,.31,0,.47-.01.03,0,.04,0,.07-.01l.16-.08c.07-.09.11-.19.09-.3v-.53c0-.13,0-.24-.01-.36-.03-.16-.07-.31-.15-.43-.04-.07-.11-.12-.17-.15-.05-.01-.09-.03-.13-.03-.14-.01-.27-.04-.4-.04-.23,0-.46-.01-.69-.03-.16-.01-.32-.07-.47-.16-.04-.04-.09-.07-.13-.11-.19-.15-.3-.38-.35-.61-.01-.07-.03-.15-.03-.22,0-.31,0-.63-.01-.94,0-.23-.01-.44-.01-.66,0-.08.01-.15.01-.23,0-.01.01-.03.01-.04-.01-.19.01-.38.03-.57.03-.23.11-.42.28-.55.05-.04.12-.08.17-.13.11-.07.22-.09.32-.12.28-.07.58-.11.88-.11.26.01.5.01.75.01.14-.01.26.01.39.04.07.01.15.03.22.04.17.04.34.12.5.22.15.09.26.23.31.4.04.15.07.3.08.44v1.08s0,.04-.01.05c-.05.05-.12.04-.18.04Z"/>
      <path class="cls-2" d="M186.83,99.04h-.62c-.05,0-.11,0-.16-.01-.03-.04-.03-.07-.03-.11,0-.27.01-.57.01-.84v-.22s.01-.05.01-.09h3.62s.05.01.09.03v.62c0,.2.01.39-.04.59-.03.03-.07.03-.11.03h-1.02v.08c0,.16-.01.32,0,.5.03.31.01.62.01.93,0,.09-.01.18-.01.27v.13c0,.35-.01.71-.01,1.08,0,.15,0,.3.03.43.01.05,0,.11,0,.15v1.86c0,.12,0,.26-.01.38v.23s0,.09-.01.13c-.01.03-.01.07-.03.11-.04,0-.05.01-.08.01h-.83c-.07,0-.12,0-.19.01h-.19s-.05-.01-.07-.03c-.01-.03-.01-.05-.01-.08-.03-.57-.04-1.12-.04-1.68.01-.59.01-1.19.03-1.78,0-.31.01-.62.01-.93,0-.19,0-.38-.03-.58v-.09c.04-.35.03-.7.03-1.05,0-.01,0-.04-.01-.08h-.34Z"/>
      <path class="cls-2" d="M192.94,101.04c0-.24-.01-.49-.03-.74,0-.19-.01-.39-.03-.59v-.61c0-.15.03-.28.05-.42.04-.19.13-.35.24-.51.01,0,.01-.01.01-.01.09-.15.26-.22.4-.3.14-.07.28-.11.44-.15.09-.03.19-.03.28-.04.28-.01.57-.01.84-.01.17,0,.34-.01.5,0,.05,0,.12,0,.18.01h.11c.19.01.38.04.55.12.07.01.11.04.16.05.15.07.28.13.36.27.01.03.04.05.05.07.07.08.11.16.14.26.07.19.09.39.09.61v.8c0,.28-.01.59,0,.88.01.18.01.35.01.53.01.65,0,1.28-.01,1.93v.36c0,.05.01.09.01.13v.32c-.01.19,0,.39-.05.57-.05.15-.12.3-.26.39-.03.03-.05.04-.07.07-.2.18-.42.27-.67.31-.12.01-.24.01-.35.03-.38.04-.75.03-1.12.03h-.32c-.12-.01-.26-.04-.38-.07-.07-.01-.14-.03-.22-.04-.16-.03-.28-.09-.43-.16-.12-.07-.23-.18-.32-.31-.07-.09-.11-.2-.12-.31-.03-.15-.04-.3-.05-.44-.01-.12,0-.24,0-.38v-1.31c0-.44,0-.89-.01-1.32ZM195.9,101.11v-1.78c-.01-.15-.08-.26-.22-.31-.11-.07-.23-.09-.35-.09-.17.01-.34,0-.51,0-.24.01-.38.11-.44.32-.01.01-.01.03-.01.04-.04.12-.03.23-.03.32,0,.18,0,.35.03.51.01.22,0,.43,0,.63,0,.34,0,.67.01,1.02,0,.08.01.18.01.27,0,.35.01.71-.01,1.06-.01.13-.01.28-.01.42v.22c.03.16.13.36.36.35.23,0,.44,0,.66.01.09,0,.19-.01.27-.04.12-.04.19-.11.22-.23.01-.08.03-.17.03-.26v-2.48Z"/>
      <path class="cls-2" d="M201.34,97.81c.24-.01.5-.01.74-.01.08,0,.16-.01.24-.01.13-.01.27.01.4.01.26.01.53,0,.8,0h.26c.18,0,.34.04.49.13.07.04.15.08.22.12.07.03.13.09.19.15.05.08.11.16.15.24.04.09.07.19.07.3,0,.15.01.3.01.44.04.65.04,1.29.03,1.93,0,.19-.01.36-.03.54-.01.08-.03.18-.05.26-.07.16-.15.31-.26.43-.03.04-.07.07-.11.09s-.07.05-.11.08c.01.12.05.24.09.38.05.19.11.39.15.59.03.09.04.19.07.3.05.32.12.65.2.97.01.11.04.2.07.3.03.07.01.13-.05.18-.07.03-.13.04-.2.04h-.85c-.11,0-.2-.03-.31-.03-.01-.03-.03-.05-.04-.09-.03-.12-.05-.24-.08-.36-.05-.26-.12-.5-.19-.74-.04-.18-.11-.34-.15-.51-.04-.22-.08-.42-.13-.62-.01-.05-.03-.11-.04-.15-.11-.03-.38-.03-.54-.01,0,.03-.01.05-.01.08v2.18c0,.08-.03.15-.04.22-.01.03-.04.04-.05.07h-1.28s-.05-.08-.05-.13c0-.12-.01-.24-.01-.35,0-.15.01-.28,0-.42-.04-.54-.04-1.08-.01-1.62.01-.51.01-1.02.03-1.54,0-.32-.01-.63-.01-.96,0-.2.01-.42.01-.63,0-.09.01-.19.01-.28s-.01-.2-.01-.3v-.77s0-.09.01-.13v-.18c0-.05-.01-.11.03-.18h.38ZM202.35,99.32v2.02s0,.07.04.09c.01.01.03.01.05.01h.67s.07,0,.09-.01c.18-.03.24-.11.26-.28.01-.2.01-.4.03-.61,0-.22-.01-.44-.01-.66,0-.2-.01-.4-.01-.59,0-.09-.04-.16-.12-.2-.04-.01-.07-.04-.11-.05-.11-.03-.22-.04-.32-.05h-.43s-.08,0-.13.04v.3Z"/>
      <path class="cls-2" d="M211.69,98.89c-.05.04-.11.07-.16.07h-.27c-.31,0-.63.01-.96.01-.11,0-.23.01-.34.01-.03.01-.03.04-.03.07,0,.26,0,.5-.01.74v.15c.01.12.01.24.01.36,0,0,.01.01.01.03h.04c.15.01.3.01.44.01h.34c.08,0,.16-.01.23-.01.15,0,.31.01.46.01.01,0,.03.01.04.01,0,.22.01.42.01.63v.63c-.14.01-.26.04-.38.04h-1.2s-.01.04-.01.07v.34c0,.28,0,.55-.01.82-.01.23.01.46,0,.69,0,.13.01.26.01.39v.07s.05.01.08.01h.36c.23,0,.44.01.67.01.13,0,.27.01.42.01.07.01.13.01.19.03.05.4.05.79.04,1.2-.03,0-.04.01-.05.01-.39,0-.78.01-1.16.01h-1.28c-.08,0-.17-.03-.26-.03-.09-.01-.19-.01-.3-.01h-.08s-.03-.04-.04-.05v-.03c-.01-.38-.01-.75-.01-1.13v-.39c-.03-.32-.03-.66-.03-1,.01-.22,0-.42,0-.63,0-.09,0-.2.01-.3.01-.22,0-.42,0-.62,0-.13-.01-.26-.01-.39-.01-.09,0-.18,0-.27,0-.22,0-.44.01-.66.01-.23.03-.46.03-.69-.01-.2-.01-.4-.01-.61,0-.18,0-.35.01-.54,0-.05.01-.11.03-.16.01-.04.04-.07.08-.07h2.72c.08,0,.18,0,.26-.01h.11c.01.39,0,.77-.03,1.15Z"/>
      <path class="cls-8" d="M217.29,106.29c.01-.16.03-.32.02-.47,0-.2-.01-.39-.01-.58-.01-.23,0-.45,0-.68-.01-.33-.01-.68-.02-1.01,0-.31.01-.62.01-.93.01-.41.01-.83.01-1.24.01-.94.01-1.89.02-2.84v-1.37c-.01-.29-.02-.56-.02-.85-.01-.25-.01-.18.15-.33h.91s.03.06.05.08v2.6s-.01.09-.01.14v6.06s0,.1.01.15v1.52c-.06.1-.15.11-.25.11-.11.01-.22.02-.33.03h-.39c-.11-.1-.14-.23-.14-.38Z"/>
      <path class="cls-2" d="M223.66,97.76s.09,0,.14-.01c.19,0,.36-.01.54-.01h.81c.36,0,.73,0,1.1.01.12,0,.24.03.36.07.14.04.26.09.36.18.01,0,.03,0,.03.01.12.11.27.22.35.36.04.05.07.12.08.18.03.11.04.2.07.3v.09c0,.05,0,.09.01.13v.23c0,.16,0,.34.01.51.01.31.01.62,0,.93v.65c0,.16.01.32.01.49,0,.27.01.54,0,.82-.01.51,0,1.02,0,1.54-.01.27-.11.5-.3.69-.14.13-.31.24-.5.3-.05.01-.11.01-.16.01-.12.01-.23.01-.35.03-.19.01-.38.03-.57.03-.13.01-.27,0-.4,0h-1.63c-.05,0-.11-.01-.17-.01-.04,0-.07-.03-.08-.07v-.09c-.01-.34-.01-.67-.03-1.01v-.39c0-.19,0-.39.01-.58,0-.36,0-.71.01-1.06,0-.19,0-.36-.01-.54v-.73c0-.16,0-.32.01-.49.05-.4.01-.8.03-1.2,0-.08-.01-.16-.03-.23v-.77c0-.09.01-.18.01-.26,0-.03.01-.04.01-.07.09-.01.17-.03.26-.03ZM225.83,103.97c.07-.01.14-.03.19-.07.04-.01.07-.05.07-.09,0-.08.01-.16.01-.24.01-.19.03-.39.03-.58,0-.49.01-.97-.01-1.44-.01-.31,0-.62,0-.92-.01-.31-.01-.62-.01-.93,0-.13.01-.26,0-.39-.01-.13-.07-.24-.22-.3-.08-.04-.16-.05-.26-.05h-.66c-.05,0-.09,0-.12.04,0,.01-.01.03-.01.04.01.49.01.96.01,1.43,0,.3.01.59.01.89-.01.38,0,.75-.01,1.13-.01.16,0,.32-.01.47,0,.12-.01.24-.03.36,0,.04-.01.08-.01.13,0,.16,0,.32.01.5,0,.01.01.03.01.05.03.05.97-.04,1.01-.04Z"/>
      <path class="cls-2" d="M234.28,98.89c-.05.04-.11.07-.16.07h-.27c-.31,0-.63.01-.96.01-.11,0-.23.01-.34.01-.03.01-.03.04-.03.07,0,.26,0,.5-.01.74v.15c.01.12.01.24.01.36,0,0,.01.01.01.03h.04c.15.01.3.01.44.01h.34c.08,0,.16-.01.23-.01.15,0,.31.01.46.01.01,0,.03.01.04.01,0,.22.01.42.01.63v.63c-.14.01-.26.04-.38.04h-1.2s-.01.04-.01.07v.34c0,.28,0,.55-.01.82-.01.23.01.46,0,.69,0,.13.01.26.01.39v.07s.05.01.08.01h.36c.23,0,.44.01.67.01.13,0,.27.01.42.01.07.01.13.01.19.03.05.4.05.79.04,1.2-.03,0-.04.01-.05.01-.39,0-.78.01-1.16.01h-1.28c-.08,0-.17-.03-.26-.03-.09-.01-.19-.01-.3-.01h-.08s-.03-.04-.04-.05v-.03c-.01-.38-.01-.75-.01-1.13v-.39c-.03-.32-.03-.66-.03-1,.01-.22,0-.42,0-.63,0-.09,0-.2.01-.3.01-.22,0-.42,0-.62,0-.13-.01-.26-.01-.39-.01-.09,0-.18,0-.27,0-.22,0-.44.01-.66.01-.23.03-.46.03-.69-.01-.2-.01-.4-.01-.61,0-.18,0-.35.01-.54,0-.05.01-.11.03-.16.01-.04.04-.07.08-.07h2.72c.08,0,.18,0,.26-.01h.11c.01.39,0,.77-.03,1.15Z"/>
      <path class="cls-2" d="M239.19,97.76s.04.01.05.01c.04.03.04.08.04.12.01.09.01.19.01.28v1.08c0,.27-.01.54.01.81.01.31.01.62.01.93,0,.07-.01.13-.01.22,0,.04-.01.08,0,.12.01.08.01.15.01.23v.58c0,.09,0,.19-.01.28-.01.04-.01.09,0,.15.03.16.01.34.01.51,0,.24-.01.49-.03.73v.24s.05.03.08.03c.15,0,.28,0,.43.03.22-.01.44.01.67-.01.07-.01.13-.01.22-.01.05,0,.11,0,.16.01.04,0,.08.01.11.03.03.11.04.93.03,1.17-.03.01-.05.03-.07.03-.13.01-.27.01-.4.01h-.61c-.63.01-1.25.01-1.89.01h-.05c-.05-.03-.08-.05-.11-.11v-.38c-.01-.19,0-.39-.01-.58-.03-.38-.01-.75-.01-1.13,0-.23.01-.46.01-.69.01-.34.01-.66.01-1,0-.07,0-.13.01-.2v-.44c0-.07-.01-.15-.01-.22v-.7c0-.07,0-.13.01-.2v-.07c0-.16.01-.34,0-.49-.01-.12-.01-.24-.01-.36,0-.09.01-.2.01-.3v-.58c0-.07.03-.11.11-.13.39,0,.8,0,1.2-.01Z"/>
      <path class="cls-2" d="M247.15,102.5h-1.08s-.05.07-.05.11c0,.11,0,.2-.01.3,0,.15,0,.28-.01.4,0,.03,0,.04.01.07v.12c0,.3,0,.58-.01.88,0,.2-.01.38-.03.55,0,.09,0,.2-.01.3v.05s-.07.01-.09.01c-.23.01-.44.01-.67.01-.17,0-.36,0-.55.01h-.05s-.04-.05-.04-.08c0-.15,0-.28-.01-.42-.01-.26,0-.53.01-.8.01-.43,0-.88,0-1.33.01-.38.01-.77-.01-1.16-.01-.53,0-1.04,0-1.55,0-.23.01-.44.01-.67,0-.03.01-.07,0-.12,0-.12.01-.24.04-.38.01-.07.03-.15.04-.23.04-.11.08-.23.15-.32.05-.07.11-.13.16-.2.04-.05.09-.09.16-.12.19-.07.36-.13.55-.2.05-.03.12-.04.19-.04h.53c.16,0,.32-.01.49-.01.16.01.32.01.49.04.2.01.42.05.61.12.04.03.09.03.13.04.12.03.22.08.28.18.05.07.11.12.16.19.01.03.03.05.04.07.09.16.13.32.15.5.03.18.05.34.05.51s.01.35,0,.53c0,.23,0,.44-.01.66-.01.4,0,.81,0,1.23v1.1c0,.24,0,.47-.01.7,0,.18,0,.36-.01.54,0,.23-.01.46-.03.7,0,.13-.01.24-.03.36,0,.09-.05.15-.15.15h-.59s-.08,0-.12-.01c-.12-.01-.26-.01-.39-.01h-.09c-.03-.05-.05-.11-.05-.16-.03-.36-.01-.74-.01-1.1,0-.43.01-.85.01-1.28v-.15s-.01-.03-.01-.05c-.04-.01-.07-.01-.09-.01ZM247.27,101.06v-.46c0-.18,0-.35-.01-.53-.01-.04-.01-.09-.01-.15v-.51c0-.09-.01-.18-.07-.24-.01-.05-.05-.08-.11-.09-.19-.04-.39-.07-.58-.07-.09,0-.17.03-.26.08-.03.01-.05.03-.07.05-.05.07-.09.13-.12.22-.01.08-.03.17-.03.26-.01.16-.01.32-.03.5v.84c.01.07.01.12.03.19.42.03.82-.01,1.25,0v-.08Z"/>
      <path class="cls-2" d="M255.04,100.81v-.82c0-.54.01-1.08.01-1.62v-.38s0-.08.05-.12c.03,0,.05-.01.09-.01.22,0,.42-.01.63-.01h.49s.08,0,.12.01c0,.03.01.04.01.07,0,.05.01.09.01.15,0,.03.01.05.01.08,0,.51-.03,1.02-.01,1.54.01.32.03.65.01.97-.03.55-.03,1.1-.03,1.67v.32c0,.11.01.2.01.31.04.51.01,1.02.01,1.54-.01.12,0,.24-.01.36-.01.08-.01.15-.01.22,0,.09,0,.18-.04.24-.07.03-.15.01-.23.01-.05,0-.12-.01-.18-.01h-.79c-.05,0-.11,0-.16-.01-.01-.05,0-.09,0-.15-.01-.3-.01-.59,0-.9,0-.09-.03-.16-.07-.24-.07-.12-.13-.24-.19-.36-.09-.22-.22-.43-.35-.63-.01-.03-.03-.05-.04-.08-.11-.2-.22-.39-.31-.59-.08-.16-.16-.31-.24-.47-.03-.05-.04-.09-.09-.13v.05c-.01.55-.01,1.12,0,1.67,0,.44,0,.89-.01,1.32,0,.13-.01.26-.01.38,0,.04-.01.08-.04.12-.11.01-.22.03-.32.03h-.74c-.08,0-.16-.01-.24-.03-.01,0-.04-.01-.05-.03s-.01-.03-.01-.04c-.03-.4-.03-.82-.03-1.23-.01-.16-.03-.32-.01-.5.01-.38.01-.77.01-1.15.01-.26,0-.51.01-.75.01-.27.01-.54.01-.81,0-.11-.01-.22-.01-.31v-.51c.01-.08.01-.17.01-.27v-1.67c0-.07.01-.13.07-.17.01-.01.03-.01.05-.01.42,0,.85-.04,1.25.01.05.05.07.11.09.15.09.24.19.47.27.7.07.18.12.36.19.54.12.31.26.63.4.94.09.2.18.4.27.61.03.04.05.09.12.16v-.13Z"/>
      <path class="cls-2" d="M260.31,97.76s.09,0,.14-.01c.19,0,.36-.01.54-.01h.81c.36,0,.73,0,1.1.01.12,0,.24.03.36.07.14.04.26.09.36.18.01,0,.03,0,.03.01.12.11.27.22.35.36.04.05.07.12.08.18.03.11.04.2.07.3v.09c0,.05,0,.09.01.13v.23c0,.16,0,.34.01.51.01.31.01.62,0,.93v.65c0,.16.01.32.01.49,0,.27.01.54,0,.82-.01.51,0,1.02,0,1.54-.01.27-.11.5-.3.69-.14.13-.31.24-.5.3-.05.01-.11.01-.16.01-.12.01-.23.01-.35.03-.19.01-.38.03-.57.03-.13.01-.27,0-.4,0h-1.63c-.05,0-.11-.01-.17-.01-.04,0-.07-.03-.08-.07v-.09c-.01-.34-.01-.67-.03-1.01v-.39c0-.19,0-.39.01-.58,0-.36,0-.71.01-1.06,0-.19,0-.36-.01-.54v-.73c0-.16,0-.32.01-.49.05-.4.01-.8.03-1.2,0-.08-.01-.16-.03-.23v-.77c0-.09.01-.18.01-.26,0-.03.01-.04.01-.07.09-.01.17-.03.26-.03ZM262.48,103.97c.07-.01.14-.03.19-.07.04-.01.07-.05.07-.09,0-.08.01-.16.01-.24.01-.19.03-.39.03-.58,0-.49.01-.97-.01-1.44-.01-.31,0-.62,0-.92-.01-.31-.01-.62-.01-.93,0-.13.01-.26,0-.39-.01-.13-.07-.24-.22-.3-.08-.04-.16-.05-.26-.05h-.66c-.05,0-.09,0-.12.04,0,.01-.01.03-.01.04.01.49.01.96.01,1.43,0,.3.01.59.01.89-.01.38,0,.75-.01,1.13-.01.16,0,.32-.01.47,0,.12-.01.24-.03.36,0,.04-.01.08-.01.13,0,.16,0,.32.01.5,0,.01.01.03.01.05.03.05.97-.04,1.01-.04Z"/>
      <path class="cls-2" d="M269.06,105.18c-.01.22-.09.4-.17.61-.05.15-.12.28-.19.42-.05.13-.16.23-.31.24-.15,0-.3.01-.44.01-.18-.01-.23-.11-.16-.27.09-.24.19-.49.28-.73.01-.03.03-.05.03-.08.03-.05,0-.07-.04-.08-.08-.01-.15-.03-.23-.05-.15-.05-.24-.18-.24-.34v-.93c0-.2.12-.34.32-.36.27-.03.54-.07.81-.03.24.04.39.22.39.44,0,.08-.01.16-.01.24v.24c-.01.23-.03.44-.03.66Z"/>
      <path class="cls-2" d="M275.23,101.62c-.11.01-.22.03-.31.03h-1.25c0,.07-.01.15-.01.22v.62c0,.27-.01.54-.01.82.01.34.01.67.01,1.01,0,.12-.01.24-.03.35v.35c-.01.05,0,.11,0,.16-.01.07-.03.09-.11.09-.04,0-.09,0-.14.01-.32,0-.63,0-.94.01h-.12c-.05-.01-.09-.04-.11-.09v-.09c-.01-.16-.01-.32-.01-.49v-.49c0-.13,0-.27.01-.4.01-.04,0-.08.01-.12,0-.3-.01-.58,0-.86v-.67s0-.08,0-.12c0-.01.01-.04,0-.05-.01-.07,0-.12,0-.19,0-.05.01-.11.01-.16,0-.18,0-.35-.01-.51,0-.2-.01-.39-.01-.59-.01-.07,0-.12,0-.19v-.9c.01-.11.01-.22.01-.32,0-.15,0-.31-.01-.46v-.46s.01-.08.03-.11c0-.07.01-.12.01-.2.03-.04.07-.07.12-.08.07-.01.13-.01.2-.01h1.86c.13,0,.27-.01.39-.01.19.01.36.01.55.01.01,0,.03.01.03.01.04.03.04.07.04.11-.01.08-.01.16,0,.24,0,.07-.01.12-.01.17,0,.22-.01.42-.01.62-.04.04-.08.05-.13.07h-.03c-.39,0-.8.01-1.19.01-.12,0-.24.01-.36.01-.04.03-.04.05-.04.09v1.19s0,.04.01.05.03.01.04.01c.15.01.3.01.44.01h.26c.15,0,.3,0,.46-.01.09-.01.17-.01.26,0,.04,0,.08.01.11.04,0,.42.03.84,0,1.25,0,0,0,.01-.01.01Z"/>
      <path class="cls-2" d="M280.31,97.76s.04.01.05.01c.04.03.04.08.04.12.01.09.01.19.01.28v1.08c0,.27-.01.54.01.81.01.31.01.62.01.93,0,.07-.01.13-.01.22,0,.04-.01.08,0,.12.01.08.01.15.01.23v.58c0,.09,0,.19-.01.28-.01.04-.01.09,0,.15.03.16.01.34.01.51,0,.24-.01.49-.03.73v.24s.05.03.08.03c.15,0,.28,0,.43.03.22-.01.44.01.67-.01.07-.01.13-.01.22-.01.05,0,.11,0,.16.01.04,0,.08.01.11.03.03.11.04.93.03,1.17-.03.01-.05.03-.07.03-.13.01-.27.01-.4.01h-.61c-.63.01-1.25.01-1.89.01h-.05c-.05-.03-.08-.05-.11-.11v-.38c-.01-.19,0-.39-.01-.58-.03-.38-.01-.75-.01-1.13,0-.23.01-.46.01-.69.01-.34.01-.66.01-1,0-.07,0-.13.01-.2v-.44c0-.07-.01-.15-.01-.22v-.7c0-.07,0-.13.01-.2v-.07c0-.16.01-.34,0-.49-.01-.12-.01-.24-.01-.36,0-.09.01-.2.01-.3v-.58c0-.07.03-.11.11-.13.39,0,.8,0,1.2-.01Z"/>
    </g>
  </g>
  <g>
    <path class="cls-8" d="M56.5,47.8h15.96v6.57h-9.39v10.48h5.76v6.63h-5.76v16.65h-6.57v-40.33Z"/>
    <path class="cls-8" d="M82.25,74.47v-26.67h6.57v26.67c0,5.3,2.36,7.95,4.67,7.95s4.67-2.65,4.67-7.89v-26.73h6.57v26.73c0,9.51-5.65,14.29-11.23,14.29s-11.23-4.78-11.23-14.34Z"/>
    <path class="cls-8" d="M115.67,47.8h6.57v33.82h9.45v6.51h-16.02v-40.33Z"/>
    <path class="cls-8" d="M141.48,47.8h6.57v33.82h9.45v6.51h-16.02v-40.33Z"/>
  </g>
  <path class="cls-1" d="M182.32,48.1h-14.92c-.67,0-1.2.54-1.2,1.2v37.7c0,.67.54,1.2,1.2,1.2h6.14c.67,0,1.2-.54,1.2-1.2v-14.36h4.18c.67,0,1.2-.54,1.2-1.2v-6.19c0-.67-.54-1.2-1.2-1.2h-4.18v-7.39h7.57c.67,0,1.2-.54,1.2-1.2v-6.14c0-.67-.54-1.2-1.2-1.2Z"/>
  <rect class="cls-1" x="192.53" y="48.1" width="8.55" height="40.11" rx="1.2" ry="1.2"/>
  <path class="cls-1" d="M226.26,79.71h-7.63v-30.41c0-.67-.54-1.2-1.2-1.2h-6.14c-.67,0-1.2.54-1.2,1.2v37.7c0,.67.54,1.2,1.2,1.2h14.97c.67,0,1.2-.54,1.2-1.2v-6.09c0-.67-.54-1.2-1.2-1.2Z"/>
  <path class="cls-1" d="M252.64,79.71h-7.63v-30.41c0-.67-.54-1.2-1.2-1.2h-6.14c-.67,0-1.2.54-1.2,1.2v37.7c0,.67.54,1.2,1.2,1.2h14.97c.67,0,1.2-.54,1.2-1.2v-6.09c0-.67-.54-1.2-1.2-1.2Z"/>
  <path class="cls-1" d="M271.61,65.42c-2.47-2.38-4.61-4.43-4.61-6.8,0-1.73,1.06-2.51,1.81-2.51s1.17.68,1.17,1.81c0,.67.54,1.2,1.2,1.2h6.14c.67,0,1.2-.54,1.2-1.2,0-7.16-5.04-10.41-9.71-10.41-5.12,0-10.31,3.82-10.31,11.11,0,4.85,3.61,8.57,6.79,11.86,2.44,2.51,4.74,4.89,4.74,7.1,0,1.77-1.06,2.57-1.81,2.57s-1.17-.7-1.17-1.87c0-.67-.54-1.2-1.2-1.2h-6.14c-.67,0-1.2.54-1.2,1.2,0,7.15,5.04,10.41,9.71,10.41,5.12,0,10.31-3.82,10.31-11.11,0-5.51-3.67-9.04-6.92-12.15Z"/>
</svg>