<?xml version="1.0" encoding="UTF-8"?>
<svg id="Layer_2" data-name="Layer 2" xmlns="http://www.w3.org/2000/svg" viewBox="0 0 550 210">
  <defs>
    <style>
      .cls-1 {
        fill: #6dc49b;
      }

      .cls-2 {
        fill: #362d1a;
      }

      .cls-3 {
        fill: #fff;
      }

      .cls-4 {
        fill: #e4775d;
      }

      .cls-5 {
        fill: #4c7660;
      }

      .cls-6 {
        fill: #f7be7d;
      }
    </style>
  </defs>
  <g>
    <g>
      <g>
        <path class="cls-4" d="M50.94,189.19c-5.66-6.2-9.09-13.31-10.05-20.64-7.15-.6-14.01-3.49-20.44-8.6l-13.05-10.38,11.16-12.39c1.71-1.9,10.99-11.38,25.93-11.38.92,0,1.85.04,2.77.11v-57.25c0-18.2,15.84-33.01,35.31-33.01h384.12c.24-3.02,1.05-6,2.42-8.81,4.09-8.41,12.78-13.85,22.14-13.85,2.63,0,5.2.41,7.66,1.22,3.89-3.59,9.07-5.71,14.51-5.71,3.21,0,6.44.75,9.34,2.15,5.12,2.49,8.97,6.83,10.83,12.22,1.41,4.07,1.55,8.37.46,12.44,8.53,8.29,11.13,21.39,5.7,32.55-4.69,9.64-14.65,15.87-25.38,15.87-.85,0-1.7-.04-2.54-.11v64.04c0,18.2-15.84,33.01-35.31,33.01H79.89c-1.62,3.34-3.72,6.42-6.1,8.87l-11.61,11.97-11.24-12.32Z"/>
        <path class="cls-3" d="M62.18,202.59h-.02c-.3,0-.59-.13-.79-.36l-11.24-12.32c-5.54-6.07-9.06-13.09-10.2-20.37-7.05-.77-13.83-3.71-20.16-8.75l-13.05-10.38c-.24-.19-.38-.46-.41-.76-.02-.3.08-.6.28-.82l11.16-12.39c1.76-1.96,11.34-11.74,26.73-11.74.56,0,1.12.01,1.68.04v-56.09c0-18.8,16.33-34.1,36.39-34.1h383.13c.34-2.84,1.15-5.59,2.42-8.2,4.28-8.78,13.35-14.46,23.12-14.46,2.53,0,5.01.36,7.4,1.09,4.12-3.6,9.35-5.57,14.78-5.57,3.38,0,6.77.78,9.82,2.26,5.39,2.62,9.43,7.18,11.39,12.85,1.4,4.05,1.62,8.34.64,12.46,8.71,8.84,10.92,22.16,5.48,33.36-5.08,10.45-16.1,17.03-27.81,16.45v62.87c0,18.8-16.33,34.1-36.39,34.1H80.57c-1.64,3.24-3.7,6.18-5.99,8.54l-11.61,11.97c-.21.21-.49.33-.78.33ZM8.99,149.43l12.14,9.66c6.25,4.97,12.93,7.79,19.85,8.37.51.04.92.44.99.94.94,7.13,4.32,14.07,9.78,20.04h0l10.46,11.46,10.81-11.13c2.27-2.34,4.31-5.31,5.9-8.58.18-.38.56-.61.98-.61h396.63c18.87,0,34.22-14.32,34.22-31.92v-64.04c0-.31.13-.6.35-.8.22-.21.53-.31.83-.28,11.17,1,21.98-5.15,26.84-15.15,5.13-10.54,2.92-23.11-5.48-31.29-.28-.27-.39-.68-.29-1.06,1.04-3.88.89-7.96-.44-11.8-1.77-5.11-5.42-9.23-10.28-11.6-2.75-1.34-5.81-2.05-8.86-2.05-5.1,0-9.99,1.93-13.77,5.42-.29.27-.71.36-1.08.23-2.35-.77-4.81-1.17-7.32-1.17-8.94,0-17.25,5.2-21.16,13.23-1.3,2.67-2.08,5.5-2.31,8.42-.05.57-.52,1-1.09,1H82.56c-18.87,0-34.22,14.32-34.22,31.92v57.25c0,.3-.13.6-.35.8-.22.21-.52.32-.83.28-.89-.07-1.79-.11-2.68-.11-14.48,0-23.46,9.18-25.12,11.02l-10.38,11.53Z"/>
      </g>
      <g>
        <path class="cls-3" d="M524.32,37.77c.46-.63.88-1.3,1.23-2.02,1.58-3.24,1.8-6.91.62-10.31-1.18-3.41-3.61-6.15-6.85-7.73-1.83-.89-3.87-1.36-5.9-1.36-5.13,0-9.9,2.98-12.14,7.59-.03.06-.05.13-.08.19-.81-.6-1.68-1.14-2.62-1.6-2.31-1.12-4.77-1.69-7.33-1.69-6.37,0-12.29,3.7-15.08,9.43-1.96,4.03-2.23,8.58-.77,12.81.05.14.11.28.17.42H82.56c-15.14,0-27.46,11.29-27.46,25.17v67.17c-3.48-1.45-7.03-2.19-10.61-2.19-11.84,0-19.29,7.88-20.09,8.78l-5.58,6.2,6.52,5.19c5.85,4.66,12.03,7.02,18.38,7.02,1.79,0,3.47-.2,5.05-.53-1.31,8.19,1.45,16.46,7.97,23.6l5.62,6.16,5.81-5.98c2.35-2.42,4.95-6.36,6.38-11.25h401.98c15.14,0,27.46-11.29,27.46-25.17v-74.64c.48.29.97.57,1.49.81,2.8,1.36,5.8,2.06,8.9,2.06,7.74,0,14.93-4.5,18.32-11.46,4.74-9.74.96-21.43-8.38-26.66Z"/>
        <path class="cls-6" d="M62.34,191.65l-6.4-7.01c-6.38-6.99-9.27-14.91-8.44-23-1.28.19-2.53.29-3.78.29-6.6,0-13.01-2.44-19.06-7.25l-7.43-5.91,6.35-7.06c.84-.94,8.58-9.14,20.9-9.14,3.18,0,6.37.57,9.52,1.69v-65.58c0-14.48,12.81-26.26,28.55-26.26h391.47c-1.18-4.21-.79-8.65,1.14-12.61,2.97-6.1,9.28-10.05,16.06-10.05,2.72,0,5.35.61,7.81,1.8.59.29,1.17.61,1.75.98,2.59-4.45,7.43-7.27,12.62-7.27,2.2,0,4.4.51,6.38,1.47,3.5,1.7,6.13,4.67,7.41,8.36,1.27,3.68,1.03,7.64-.67,11.15-.2.4-.42.8-.66,1.2,9.16,5.8,12.6,17.63,7.81,27.48-3.57,7.33-11.14,12.07-19.3,12.07-3.24,0-6.37-.72-9.3-2.13v72.81c0,14.48-12.81,26.26-28.55,26.26H75.35c-1.35,4.14-3.66,8.09-6.41,10.92l-6.61,6.81ZM50.1,158.92l-.25,1.55c-1.27,7.94,1.39,15.78,7.7,22.69l4.84,5.3,5-5.15c1.27-1.31,4.41-4.98,6.12-10.8l.23-.78h402.79c14.54,0,26.37-10.8,26.37-24.08v-76.56l1.65.98c.46.27.92.54,1.41.77,2.65,1.29,5.49,1.95,8.42,1.95,7.33,0,14.14-4.26,17.34-10.84,4.46-9.17.98-20.25-7.93-25.23l-1.07-.6.73-.99c.44-.6.82-1.23,1.13-1.85,1.45-2.98,1.65-6.35.57-9.48-1.08-3.13-3.32-5.66-6.3-7.11-1.68-.82-3.56-1.25-5.43-1.25-4.72,0-9.1,2.74-11.16,6.98-.03.08-.05.13-.08.18l-.57,1.2-1.06-.79c-.82-.6-1.62-1.09-2.45-1.5-2.16-1.05-4.46-1.58-6.85-1.58-5.96,0-11.5,3.46-14.1,8.82-1.83,3.77-2.09,8.02-.72,11.98.02.06.04.11.06.16.03.08.07.16.1.24l.54,1.47H82.56c-14.54,0-26.37,10.8-26.37,24.08v68.81l-1.51-.63c-3.37-1.4-6.8-2.11-10.2-2.11-11.38,0-18.51,7.56-19.28,8.42l-4.8,5.34,5.62,4.47c5.65,4.5,11.61,6.78,17.7,6.78,1.59,0,3.17-.16,4.84-.5l1.54-.31Z"/>
      </g>
      <g>
        <path class="cls-3" d="M476.53,51.34H82.56c-10.79,0-19.61,7.79-19.61,17.32v76.69h413.58c10.79,0,19.61-7.79,19.61-17.32V51.34h-19.61Z"/>
        <path class="cls-5" d="M476.53,146.44H61.86v-77.78c0-10.15,9.29-18.41,20.7-18.41h414.67v77.78c0,10.15-9.29,18.41-20.7,18.41ZM64.04,144.26h412.49c10.21,0,18.52-7.28,18.52-16.23V52.43H82.56c-10.21,0-18.52,7.28-18.52,16.23v75.6Z"/>
      </g>
      <g>
        <path class="cls-5" d="M491.21,47.06c-1.39,0-2.8-.31-4.13-.95-2.27-1.11-3.98-3.03-4.81-5.42-.82-2.39-.67-4.96.44-7.23,2.28-4.69,7.96-6.66,12.65-4.37,4.69,2.28,6.65,7.96,4.37,12.65h0c-1.64,3.36-5.02,5.32-8.53,5.32ZM491.23,29.22c-.92,0-1.84.15-2.74.46-2.11.73-3.82,2.24-4.8,4.25-.98,2.01-1.12,4.28-.39,6.4.73,2.11,2.24,3.82,4.25,4.8,4.15,2.02,9.18.29,11.2-3.87h0c2.02-4.15.29-9.18-3.87-11.2-1.16-.56-2.41-.85-3.66-.85Z"/>
        <path class="cls-5" d="M514.37,68.59c-1.95,0-3.9-.44-5.7-1.32-3.14-1.53-5.49-4.18-6.63-7.48-1.14-3.3-.92-6.84.6-9.98,1.53-3.14,4.18-5.49,7.48-6.63,3.3-1.14,6.84-.92,9.98.6,3.14,1.53,5.49,4.18,6.63,7.48,1.14,3.3.92,6.84-.6,9.98h0c-1.53,3.14-4.18,5.49-7.48,6.63-1.4.48-2.84.72-4.28.72ZM514.39,43.54c-1.32,0-2.64.22-3.92.66-3.02,1.04-5.46,3.2-6.86,6.08-1.4,2.88-1.6,6.13-.55,9.15,1.04,3.02,3.2,5.46,6.08,6.86,5.94,2.89,13.12.41,16.01-5.53h0c1.4-2.88,1.6-6.13.55-9.15-1.04-3.02-3.2-5.46-6.08-6.86-1.66-.81-3.44-1.21-5.23-1.21Z"/>
        <path class="cls-5" d="M513.39,36.04c-.91,0-1.83-.2-2.7-.62-1.49-.72-2.61-1.98-3.15-3.55-.54-1.57-.44-3.25.29-4.74.72-1.49,1.98-2.61,3.55-3.15,1.56-.54,3.25-.44,4.74.29,1.49.72,2.61,1.98,3.15,3.55.54,1.57.44,3.25-.29,4.74h0c-1.07,2.2-3.28,3.49-5.58,3.49ZM513.41,24.73c-.56,0-1.12.09-1.67.28-1.29.45-2.33,1.37-2.93,2.59-.6,1.23-.68,2.61-.24,3.9.45,1.29,1.37,2.33,2.59,2.93,1.23.6,2.61.68,3.9.23,1.29-.44,2.33-1.37,2.93-2.59h0c.6-1.23.68-2.61.24-3.9-.45-1.29-1.37-2.33-2.59-2.93-.71-.34-1.47-.52-2.23-.52Z"/>
      </g>
      <path class="cls-5" d="M58.01,146.45s-11.93,13.84-27.79,1.22c0,0,11.77-13.07,27.79-1.22Z"/>
      <path class="cls-5" d="M61.88,150.8s-13,12.84.66,27.81c0,0,12.25-12.62-.66-27.81Z"/>
    </g>
    <g>
      <path class="cls-2" d="M83.03,151.82c.42-.02.87-.02,1.29-.02.14,0,.28-.02.42-.02.23-.02.47.02.7.02.45.02.91,0,1.38,0h.44c.31,0,.59.07.84.23.12.07.26.14.37.21.12.05.23.16.33.26.09.14.19.28.26.42.07.16.12.33.12.52,0,.26.02.52.02.77.07,1.13.07,2.25.05,3.35,0,.33-.02.63-.05.94-.02.14-.05.3-.09.45-.12.28-.26.54-.45.75-.05.07-.12.12-.19.16s-.12.09-.19.14c.02.21.09.42.16.66.09.33.19.68.26,1.03.05.16.07.33.12.52.09.56.21,1.13.35,1.69.02.19.07.35.12.52.05.12.02.23-.09.3-.12.05-.23.07-.35.07h-1.48c-.19,0-.35-.05-.54-.05-.02-.05-.05-.09-.07-.16-.05-.21-.09-.42-.14-.63-.09-.45-.21-.87-.33-1.29-.07-.3-.19-.59-.26-.89-.07-.38-.14-.73-.23-1.08-.02-.09-.05-.19-.07-.26-.19-.05-.66-.05-.94-.02,0,.05-.02.09-.02.14v3.8c0,.14-.05.26-.07.38-.02.05-.07.07-.09.12h-2.23c-.07-.05-.09-.14-.09-.23,0-.21-.02-.42-.02-.61,0-.26.02-.49,0-.73-.07-.94-.07-1.88-.02-2.81.02-.89.02-1.78.05-2.67,0-.56-.02-1.1-.02-1.66,0-.35.02-.73.02-1.1,0-.16.02-.33.02-.49s-.02-.35-.02-.52v-1.34c0-.07,0-.16.02-.23v-.3c0-.09-.02-.19.05-.3h.66ZM84.78,154.44v3.52c0,.07,0,.12.07.16.02.02.05.02.09.02h1.17s.12,0,.16-.02c.31-.05.42-.19.45-.49.02-.35.02-.7.05-1.06,0-.38-.02-.77-.02-1.15,0-.35-.02-.7-.02-1.03,0-.16-.07-.28-.21-.35-.07-.02-.12-.07-.19-.09-.19-.05-.37-.07-.56-.09h-.75c-.07,0-.14,0-.23.07v.52Z"/>
      <path class="cls-2" d="M101.03,153.69c-.09.07-.19.12-.28.12h-.47c-.54,0-1.1.02-1.66.02-.19,0-.4.02-.59.02-.05.02-.05.07-.05.12,0,.45,0,.87-.02,1.29v.26c.02.21.02.42.02.63,0,0,.02.02.02.05h.07c.26.02.52.02.77.02h.59c.14,0,.28-.02.4-.02.26,0,.54.02.8.02.02,0,.05.02.07.02,0,.38.02.73.02,1.1v1.1c-.24.02-.45.07-.66.07h-2.09s-.02.07-.02.12v.59c0,.49,0,.96-.02,1.43-.02.4.02.8,0,1.2,0,.23.02.45.02.68v.12s.09.02.14.02h.63c.4,0,.77.02,1.17.02.23,0,.47.02.73.02.12.02.23.02.33.05.09.7.09,1.38.07,2.09-.05,0-.07.02-.09.02-.68,0-1.36.02-2.02.02h-2.23c-.14,0-.3-.05-.44-.05-.16-.02-.33-.02-.52-.02h-.14s-.05-.07-.07-.09v-.05c-.02-.66-.02-1.31-.02-1.97v-.68c-.05-.56-.05-1.15-.05-1.74.02-.38,0-.73,0-1.1,0-.16,0-.35.02-.52.02-.38,0-.73,0-1.08,0-.23-.02-.45-.02-.68-.02-.16,0-.3,0-.47,0-.38,0-.77.02-1.15.02-.4.05-.8.05-1.2-.02-.35-.02-.7-.02-1.05,0-.3,0-.61.02-.94,0-.09.02-.19.05-.28.02-.07.07-.12.14-.12h4.74c.14,0,.31,0,.45-.02h.19c.02.68,0,1.34-.05,1.99Z"/>
      <path class="cls-2" d="M112.47,158.45c-.19.02-.38.05-.54.05h-2.18c0,.12-.02.26-.02.38v1.08c0,.47-.02.94-.02,1.43.02.59.02,1.17.02,1.76,0,.21-.02.42-.05.61v.61c-.02.09,0,.19,0,.28-.02.12-.05.16-.19.16-.07,0-.16,0-.24.02-.56,0-1.1,0-1.64.02h-.21c-.09-.02-.16-.07-.19-.16v-.16c-.02-.28-.02-.56-.02-.84v-.84c0-.23,0-.47.02-.7.02-.07,0-.14.02-.21,0-.52-.02-1.01,0-1.5v-1.17c-.02-.07,0-.14,0-.21,0-.02.02-.07,0-.09-.02-.12,0-.21,0-.33,0-.09.02-.19.02-.28,0-.3,0-.61-.02-.89,0-.35-.02-.68-.02-1.03-.02-.12,0-.21,0-.33v-1.57c.02-.19.02-.38.02-.56,0-.26,0-.54-.02-.8v-.8c0-.07.02-.14.05-.19,0-.12.02-.21.02-.35.05-.07.12-.12.21-.14.12-.02.23-.02.35-.02h3.23c.23,0,.47-.02.68-.02.33.02.63.02.96.02.02,0,.05.02.05.02.07.05.07.12.07.19-.02.14-.02.28,0,.42,0,.12-.02.21-.02.3,0,.38-.02.73-.02,1.08-.07.07-.14.09-.23.12h-.05c-.68,0-1.38.02-2.06.02-.21,0-.42.02-.63.02-.07.05-.07.09-.07.16v2.06s0,.07.02.09.05.02.07.02c.26.02.52.02.77.02h.45c.26,0,.52,0,.8-.02.16-.02.3-.02.45,0,.07,0,.14.02.19.07,0,.73.05,1.45,0,2.18,0,0,0,.02-.02.02Z"/>
      <path class="cls-2" d="M119.33,151.84h2.09c.02.07.05.12.05.16.02.16.02.35.02.52v5.79c0,.12-.02.21-.05.33v.09c.05.21,0,.45.02.66.02.19.02.38.02.54v.42c.02.28.02.59.02.89.02.28-.02.56-.02.84v2.34c0,.14-.05.28-.09.42-.09.05-.19.02-.26.02-.33,0-.68-.02-1.01,0-.28.02-.59.02-.87.02h-.16c-.09-.07-.12-.14-.12-.23v-.68c0-.3.02-.59,0-.89-.05-.49-.02-.98-.05-1.48,0-.19,0-.35.02-.54.05-.98.02-1.97.05-2.95,0-.35.02-.7.02-1.06,0-.3-.05-.61-.05-.89,0-.35,0-.68.02-1.03.02-.3.02-.59.02-.89,0-.19-.02-.35-.02-.52,0-.4.02-.82.02-1.2v-.35c0-.09,0-.19.05-.3.09-.02.19-.05.26-.05Z"/>
      <path class="cls-2" d="M130,151.73s.07.02.09.02c.07.05.07.14.07.21.02.16.02.33.02.49v1.88c0,.47-.02.94.02,1.41.02.54.02,1.08.02,1.62,0,.12-.02.23-.02.38,0,.07-.02.14,0,.21.02.14.02.26.02.4v1.01c0,.16,0,.33-.02.49-.02.07-.02.16,0,.26.05.28.02.59.02.89,0,.42-.02.84-.05,1.27v.42s.09.05.14.05c.26,0,.49,0,.75.05.38-.02.77.02,1.17-.02.12-.02.23-.02.37-.02.09,0,.19,0,.28.02.07,0,.14.02.19.05.05.19.07,1.62.05,2.04-.05.02-.09.05-.12.05-.23.02-.47.02-.7.02h-1.05c-1.1.02-2.18.02-3.28.02h-.09c-.09-.05-.14-.09-.19-.19v-.66c-.02-.33,0-.68-.02-1.01-.05-.66-.02-1.31-.02-1.97,0-.4.02-.8.02-1.2.02-.59.02-1.15.02-1.74,0-.12,0-.23.02-.35v-.77c0-.12-.02-.26-.02-.38v-1.22c0-.12,0-.23.02-.35v-.12c0-.28.02-.59,0-.84-.02-.21-.02-.42-.02-.63,0-.16.02-.35.02-.52v-1.01c0-.12.05-.19.19-.23.68,0,1.38,0,2.09-.02Z"/>
      <path class="cls-2" d="M141.62,151.73s.07.02.09.02c.07.05.07.14.07.21.02.16.02.33.02.49v1.88c0,.47-.02.94.02,1.41.02.54.02,1.08.02,1.62,0,.12-.02.23-.02.38,0,.07-.02.14,0,.21.02.14.02.26.02.4v1.01c0,.16,0,.33-.02.49-.02.07-.02.16,0,.26.05.28.02.59.02.89,0,.42-.02.84-.05,1.27v.42s.09.05.14.05c.26,0,.49,0,.75.05.38-.02.77.02,1.17-.02.12-.02.23-.02.37-.02.09,0,.19,0,.28.02.07,0,.14.02.19.05.05.19.07,1.62.05,2.04-.05.02-.09.05-.12.05-.23.02-.47.02-.7.02h-1.05c-1.1.02-2.18.02-3.28.02h-.09c-.09-.05-.14-.09-.19-.19v-.66c-.02-.33,0-.68-.02-1.01-.05-.66-.02-1.31-.02-1.97,0-.4.02-.8.02-1.2.02-.59.02-1.15.02-1.74,0-.12,0-.23.02-.35v-.77c0-.12-.02-.26-.02-.38v-1.22c0-.12,0-.23.02-.35v-.12c0-.28.02-.59,0-.84-.02-.21-.02-.42-.02-.63,0-.16.02-.35.02-.52v-1.01c0-.12.05-.19.19-.23.68,0,1.38,0,2.09-.02Z"/>
      <path class="cls-2" d="M156.48,153.69c-.09.07-.19.12-.28.12h-.47c-.54,0-1.1.02-1.66.02-.19,0-.4.02-.59.02-.05.02-.05.07-.05.12,0,.45,0,.87-.02,1.29v.26c.02.21.02.42.02.63,0,0,.02.02.02.05h.07c.26.02.52.02.77.02h.59c.14,0,.28-.02.4-.02.26,0,.54.02.8.02.02,0,.05.02.07.02,0,.38.02.73.02,1.1v1.1c-.24.02-.45.07-.66.07h-2.09s-.02.07-.02.12v.59c0,.49,0,.96-.02,1.43-.02.4.02.8,0,1.2,0,.23.02.45.02.68v.12s.09.02.14.02h.63c.4,0,.77.02,1.17.02.23,0,.47.02.73.02.12.02.23.02.33.05.09.7.09,1.38.07,2.09-.05,0-.07.02-.09.02-.68,0-1.36.02-2.02.02h-2.23c-.14,0-.3-.05-.44-.05-.16-.02-.33-.02-.52-.02h-.14s-.05-.07-.07-.09v-.05c-.02-.66-.02-1.31-.02-1.97v-.68c-.05-.56-.05-1.15-.05-1.74.02-.38,0-.73,0-1.1,0-.16,0-.35.02-.52.02-.38,0-.73,0-1.08,0-.23-.02-.45-.02-.68-.02-.16,0-.3,0-.47,0-.38,0-.77.02-1.15.02-.4.05-.8.05-1.2-.02-.35-.02-.7-.02-1.05,0-.3,0-.61.02-.94,0-.09.02-.19.05-.28.02-.07.07-.12.14-.12h4.74c.14,0,.31,0,.45-.02h.19c.02.68,0,1.34-.05,1.99Z"/>
      <path class="cls-2" d="M163.47,151.82c.42-.02.87-.02,1.29-.02.14,0,.28-.02.42-.02.23-.02.47.02.7.02.45.02.91,0,1.38,0h.44c.31,0,.59.07.84.23.12.07.26.14.37.21.12.05.23.16.33.26.09.14.19.28.26.42.07.16.12.33.12.52,0,.26.02.52.02.77.07,1.13.07,2.25.05,3.35,0,.33-.02.63-.05.94-.02.14-.05.3-.09.45-.12.28-.26.54-.45.75-.05.07-.12.12-.19.16s-.12.09-.19.14c.02.21.09.42.16.66.09.33.19.68.26,1.03.05.16.07.33.12.52.09.56.21,1.13.35,1.69.02.19.07.35.12.52.05.12.02.23-.09.3-.12.05-.23.07-.35.07h-1.48c-.19,0-.35-.05-.54-.05-.02-.05-.05-.09-.07-.16-.05-.21-.09-.42-.14-.63-.09-.45-.21-.87-.33-1.29-.07-.3-.19-.59-.26-.89-.07-.38-.14-.73-.23-1.08-.02-.09-.05-.19-.07-.26-.19-.05-.66-.05-.94-.02,0,.05-.02.09-.02.14v3.8c0,.14-.05.26-.07.38-.02.05-.07.07-.09.12h-2.23c-.07-.05-.09-.14-.09-.23,0-.21-.02-.42-.02-.61,0-.26.02-.49,0-.73-.07-.94-.07-1.88-.02-2.81.02-.89.02-1.78.05-2.67,0-.56-.02-1.1-.02-1.66,0-.35.02-.73.02-1.1,0-.16.02-.33.02-.49s-.02-.35-.02-.52v-1.34c0-.07,0-.16.02-.23v-.3c0-.09-.02-.19.05-.3h.66ZM165.23,154.44v3.52c0,.07,0,.12.07.16.02.02.05.02.09.02h1.17s.12,0,.16-.02c.31-.05.42-.19.45-.49.02-.35.02-.7.05-1.06,0-.38-.02-.77-.02-1.15,0-.35-.02-.7-.02-1.03,0-.16-.07-.28-.21-.35-.07-.02-.12-.07-.19-.09-.19-.05-.37-.07-.56-.09h-.75c-.07,0-.14,0-.23.07v.52Z"/>
      <path class="cls-2" d="M175.68,151.75c.14,0,.28-.02.45-.02h.12c.38.02.75.02,1.13.02.02,0,.05.02.07.02.05.07.05.14.07.21.16.54.33,1.08.52,1.59.12.35.26.7.35,1.06.14.35.23.73.33,1.08.07.19.12.38.16.59.05.07.07.16.14.23.05,0,.07-.02.07-.05.07-.16.14-.35.19-.52.12-.38.24-.75.35-1.1.09-.28.19-.56.28-.84.09-.26.19-.52.26-.77.14-.42.28-.84.4-1.29.02-.07.05-.14.16-.19.23,0,.49-.02.75-.02h.77c.26,0,.49.02.75.02.05.09.02.19,0,.26-.21.7-.4,1.41-.66,2.09-.05.12-.09.28-.14.4v.02c-.14.52-.3,1.01-.47,1.52-.12.35-.24.7-.35,1.05-.12.33-.19.63-.28.94-.07.21-.14.4-.21.61-.16.59-.35,1.2-.54,1.8-.05.12-.07.26-.07.4v3.52c0,.16-.05.3-.12.47h-.19c-.14.02-.3.02-.44.02-.45,0-.92.05-1.36.02h-.19c-.14,0-.19-.07-.21-.19v-.94c0-.28-.02-.54-.02-.8-.02-.75-.02-1.48,0-2.2,0-.21-.05-.42-.09-.61-.23-.68-.42-1.34-.63-1.99-.16-.54-.33-1.08-.49-1.62-.09-.28-.21-.54-.31-.82-.12-.38-.23-.73-.33-1.1-.07-.33-.21-.66-.33-.98-.09-.3-.19-.63-.28-.96-.02-.07-.05-.16-.07-.23-.07-.21-.05-.4-.02-.61.16-.07.33-.09.49-.09Z"/>
      <path class="cls-2" d="M193.07,156.5c-.14-.04-.24-.1-.36-.2-.06-.06-.12-.1-.2-.16-.26-.22-.4-.5-.42-.85-.02-.2,0-.4,0-.61,0-.14-.02-.28-.02-.42,0-.1-.02-.2.02-.3v-.95c0-.32.08-.63.18-.95,0-.02.02-.04.02-.06.1-.4.38-.67.69-.93.04-.04.08-.08.14-.12.18-.14.38-.2.61-.24.16-.04.32-.06.5-.06.44,0,.91,0,1.35.02.12,0,.24,0,.36.02h.1c.34,0,.65.14.91.36.28.22.53.51.65.87.06.16.1.32.14.5,0,.1.02.18.04.26.02.16.02.32.04.46,0,.18.02.38.02.57.02.06.02.14-.02.22-.02,0-.06.02-.1.02-.3.02-.59.04-.89.06-.22.02-.44.06-.67.08h-.32c-.08-.06-.1-.16-.1-.24,0-.16-.02-.3-.02-.46-.02-.1-.04-.2-.08-.3-.06-.12-.16-.2-.28-.24-.08-.02-.16-.02-.24-.02-.16-.02-.32-.02-.49-.02-.2.02-.34.14-.38.32-.02.16-.06.3-.04.44,0,.38,0,.75-.02,1.13,0,.12.02.24.06.34.1.32.32.48.63.57.26.06.55.08.81.08.49,0,.99,0,1.47-.02.36,0,.73.02,1.09.02.04,0,.1,0,.16.02v.12c.02.2,0,.4.04.61.02,0,.02.02.02.04,0,.36.02.75.02,1.11,0,.06,0,.1-.02.14-.04.06-.1.06-.16.06-.14.02-.28.02-.42.02h-.12s-.02.08-.02.1c0,.28-.02.55,0,.81,0,.18.02.36.02.55v.73c0,.24,0,.51.04.77.02.04,0,.08,0,.12,0,.4.02.79,0,1.19-.02.32-.02.65-.1.97-.04.14-.06.3-.1.44-.04.16-.1.32-.2.46-.08.12-.16.22-.24.32-.26.3-.61.48-.97.57-.06.02-.1,0-.16.02-.06,0-.12-.02-.18,0-.2.04-.4.04-.61.04h-.95c-.2,0-.4-.02-.61-.06-.24-.04-.47-.14-.67-.28-.2-.16-.36-.34-.52-.55-.1-.1-.16-.24-.2-.38-.12-.28-.18-.55-.22-.83-.02-.1-.02-.18-.02-.28v-1.96c0-.26-.02-.51-.04-.75,0-.24,0-.49.02-.71.02-.2.02-.38.02-.59v-.77c.02-.12.02-.22.06-.32.04-.16.12-.28.22-.4.14-.12.28-.22.44-.3.12-.04.26-.1.38-.14-.02-.06-.06-.06-.08-.08ZM195.46,162.63c.12-.1.22-.22.26-.4.02-.14.04-.3.04-.46v-2.06c0-.22,0-.42.02-.63.02-.16,0-.32,0-.48,0-.12-.02-.24-.02-.36-.02-.12,0-.24,0-.34,0-.04,0-.08-.06-.12-.24,0-.5.02-.75,0-.16,0-.3.04-.44.1-.16.08-.28.2-.32.38-.04.16-.06.32-.06.48v.91c.04.18.02.36.02.55-.02.08-.02.16-.02.24,0,.24.02.48.02.73v.97c.02.2.08.38.2.55.04.02.1.04.16.04.26.02.55.02.81,0,.04-.02.1-.06.14-.08Z"/>
      <path class="cls-2" d="M212.42,155.66c-.07-.07-.09-.12-.09-.21s.02-.19.02-.3c0-.14-.02-.28-.02-.42-.02-.16-.05-.33-.07-.49,0-.05-.02-.09-.07-.14-.12-.14-.26-.21-.45-.28-.23-.07-.49-.07-.75-.05-.21,0-.44.07-.63.23-.09.05-.14.16-.16.26s-.02.19-.02.28c-.02.94-.02,1.88-.02,2.79v3.35c0,.23-.02.47-.05.7v.07c0,.16.02.33,0,.49,0,.26.14.47.38.59.16.07.35.14.56.12h1.15s.02-.05.02-.05c.02-.19.07-.35.02-.54v-.07c.02-.14,0-.28,0-.42q0-.3.02-.63v-.09c.02-.54.02-.59.05-1.1v-.45c-.33-.02-.66,0-.96-.05-.07-.09-.09-.16-.09-.28,0-.19-.02-.4-.02-.59,0-.26.02-.49.02-.73v-.38s0-.05.02-.09c0-.12.07-.16.19-.19.35,0,.73,0,1.08-.02.26,0,.52.02.77.02.42,0,.84-.02,1.24-.02h.09s.07.05.12.05v.09c.02.56.02,1.1.05,1.66,0,.56.02,1.1.02,1.62,0,.63,0,.49-.02,1.13,0,.35-.02.7-.02,1.06-.02.49-.02.98-.05,1.48,0,.21-.02.4-.02.59v.09s-.09.02-.12.02c-.05.02-.07.02-.12.02-.47,0-.91,0-1.36.02-.21,0-.42.02-.61.02-.35,0-.68.02-1.01.02-.42,0-.82.02-1.24.02-.3,0-.61-.02-.94-.09-.47-.05-.87-.26-1.22-.59-.05-.05-.07-.12-.12-.16-.07-.14-.16-.3-.23-.45-.07-.14-.07-.28-.09-.42-.05-.23-.02-.49-.02-.73,0-.26-.02-.54-.02-.8,0-.23.02-.47.02-.7,0-.28-.02-.54-.02-.82v-.73c0-.68,0-1.38-.02-2.06,0-.35,0-.7-.02-1.03,0-.33,0-.66-.02-.98v-.77c0-.19,0-.38.02-.59.02-.26.05-.54.09-.8.02-.12.07-.21.12-.3.12-.23.26-.45.45-.63.02-.05.07-.07.12-.12.4-.26.82-.42,1.29-.47.3-.02.59-.05.89-.05.33,0,.66-.02,1.01-.02.26,0,.54,0,.82.05.33.02.66.02.96.14.19.07.38.14.56.23.21.12.4.26.49.49.09.12.16.26.23.4.09.16.16.35.16.56v1.38c0,.07,0,.14-.02.21,0,.12-.02.23,0,.35,0,.12,0,.21-.07.33-.75-.02-1.5-.02-2.25-.05Z"/>
      <path class="cls-2" d="M226.53,153.69c-.09.07-.19.12-.28.12h-.47c-.54,0-1.1.02-1.66.02-.19,0-.4.02-.59.02-.05.02-.05.07-.05.12,0,.45,0,.87-.02,1.29v.26c.02.21.02.42.02.63,0,0,.02.02.02.05h.07c.26.02.52.02.77.02h.59c.14,0,.28-.02.4-.02.26,0,.54.02.8.02.02,0,.05.02.07.02,0,.38.02.73.02,1.1v1.1c-.24.02-.45.07-.66.07h-2.09s-.02.07-.02.12v.59c0,.49,0,.96-.02,1.43-.02.4.02.8,0,1.2,0,.23.02.45.02.68v.12s.09.02.14.02h.63c.4,0,.77.02,1.17.02.23,0,.47.02.73.02.12.02.23.02.33.05.09.7.09,1.38.07,2.09-.05,0-.07.02-.09.02-.68,0-1.36.02-2.02.02h-2.23c-.14,0-.3-.05-.44-.05-.16-.02-.33-.02-.52-.02h-.14s-.05-.07-.07-.09v-.05c-.02-.66-.02-1.31-.02-1.97v-.68c-.05-.56-.05-1.15-.05-1.74.02-.38,0-.73,0-1.1,0-.16,0-.35.02-.52.02-.38,0-.73,0-1.08,0-.23-.02-.45-.02-.68-.02-.16,0-.3,0-.47,0-.38,0-.77.02-1.15.02-.4.05-.8.05-1.2-.02-.35-.02-.7-.02-1.05,0-.3,0-.61.02-.94,0-.09.02-.19.05-.28.02-.07.07-.12.14-.12h4.74c.14,0,.31,0,.45-.02h.19c.02.68,0,1.34-.05,1.99Z"/>
      <path class="cls-2" d="M237.53,157.05v-1.43c0-.94.02-1.87.02-2.81v-.66c0-.07,0-.14.09-.21.05,0,.09-.02.16-.02.37,0,.73-.02,1.1-.02h.84c.07,0,.14,0,.21.02,0,.05.02.07.02.12,0,.09.02.16.02.26,0,.05.02.09.02.14,0,.89-.05,1.78-.02,2.67.02.56.05,1.13.02,1.69-.05.96-.05,1.92-.05,2.91v.56c0,.19.02.35.02.54.07.89.02,1.78.02,2.67-.02.21,0,.42-.02.63-.02.14-.02.26-.02.38,0,.16,0,.3-.07.42-.12.05-.26.02-.4.02-.09,0-.21-.02-.31-.02h-1.38c-.09,0-.19,0-.28-.02-.02-.09,0-.16,0-.26-.02-.52-.02-1.03,0-1.57,0-.16-.05-.28-.12-.42-.12-.21-.23-.42-.33-.63-.16-.38-.38-.75-.61-1.1-.02-.05-.05-.09-.07-.14-.19-.35-.38-.68-.54-1.03-.14-.28-.28-.54-.42-.82-.05-.09-.07-.16-.16-.23v.09c-.02.96-.02,1.95,0,2.91,0,.77,0,1.55-.02,2.3,0,.23-.02.45-.02.66,0,.07-.02.14-.07.21-.19.02-.37.05-.56.05h-1.29c-.14,0-.28-.02-.42-.05-.02,0-.07-.02-.09-.05s-.02-.05-.02-.07c-.05-.7-.05-1.43-.05-2.13-.02-.28-.05-.56-.02-.87.02-.66.02-1.34.02-1.99.02-.45,0-.89.02-1.31.02-.47.02-.94.02-1.41,0-.19-.02-.38-.02-.54v-.89c.02-.14.02-.3.02-.47v-2.91c0-.12.02-.23.12-.3.02-.02.05-.02.09-.02.73,0,1.48-.07,2.18.02.09.09.12.19.16.26.16.42.33.82.47,1.22.12.3.21.63.33.94.21.54.45,1.1.7,1.64.16.35.31.7.47,1.06.05.07.09.16.21.28v-.23Z"/>
      <path class="cls-2" d="M251.76,153.69c-.09.07-.19.12-.28.12h-.47c-.54,0-1.1.02-1.66.02-.19,0-.4.02-.59.02-.05.02-.05.07-.05.12,0,.45,0,.87-.02,1.29v.26c.02.21.02.42.02.63,0,0,.02.02.02.05h.07c.26.02.52.02.77.02h.59c.14,0,.28-.02.4-.02.26,0,.54.02.8.02.02,0,.05.02.07.02,0,.38.02.73.02,1.1v1.1c-.24.02-.45.07-.66.07h-2.09s-.02.07-.02.12v.59c0,.49,0,.96-.02,1.43-.02.4.02.8,0,1.2,0,.23.02.45.02.68v.12s.09.02.14.02h.63c.4,0,.77.02,1.17.02.23,0,.47.02.73.02.12.02.23.02.33.05.09.7.09,1.38.07,2.09-.05,0-.07.02-.09.02-.68,0-1.36.02-2.02.02h-2.23c-.14,0-.3-.05-.44-.05-.16-.02-.33-.02-.52-.02h-.14s-.05-.07-.07-.09v-.05c-.02-.66-.02-1.31-.02-1.97v-.68c-.05-.56-.05-1.15-.05-1.74.02-.38,0-.73,0-1.1,0-.16,0-.35.02-.52.02-.38,0-.73,0-1.08,0-.23-.02-.45-.02-.68-.02-.16,0-.3,0-.47,0-.38,0-.77.02-1.15.02-.4.05-.8.05-1.2-.02-.35-.02-.7-.02-1.05,0-.3,0-.61.02-.94,0-.09.02-.19.05-.28.02-.07.07-.12.14-.12h4.74c.14,0,.31,0,.45-.02h.19c.02.68,0,1.34-.05,1.99Z"/>
      <path class="cls-2" d="M258.74,151.82c.42-.02.87-.02,1.29-.02.14,0,.28-.02.42-.02.23-.02.47.02.7.02.45.02.91,0,1.38,0h.44c.31,0,.59.07.84.23.12.07.26.14.37.21.12.05.23.16.33.26.09.14.19.28.26.42.07.16.12.33.12.52,0,.26.02.52.02.77.07,1.13.07,2.25.05,3.35,0,.33-.02.63-.05.94-.02.14-.05.3-.09.45-.12.28-.26.54-.45.75-.05.07-.12.12-.19.16s-.12.09-.19.14c.02.21.09.42.16.66.09.33.19.68.26,1.03.05.16.07.33.12.52.09.56.21,1.13.35,1.69.02.19.07.35.12.52.05.12.02.23-.09.3-.12.05-.23.07-.35.07h-1.48c-.19,0-.35-.05-.54-.05-.02-.05-.05-.09-.07-.16-.05-.21-.09-.42-.14-.63-.09-.45-.21-.87-.33-1.29-.07-.3-.19-.59-.26-.89-.07-.38-.14-.73-.23-1.08-.02-.09-.05-.19-.07-.26-.19-.05-.66-.05-.94-.02,0,.05-.02.09-.02.14v3.8c0,.14-.05.26-.07.38-.02.05-.07.07-.09.12h-2.23c-.07-.05-.09-.14-.09-.23,0-.21-.02-.42-.02-.61,0-.26.02-.49,0-.73-.07-.94-.07-1.88-.02-2.81.02-.89.02-1.78.05-2.67,0-.56-.02-1.1-.02-1.66,0-.35.02-.73.02-1.1,0-.16.02-.33.02-.49s-.02-.35-.02-.52v-1.34c0-.07,0-.16.02-.23v-.3c0-.09-.02-.19.05-.3h.66ZM260.5,154.44v3.52c0,.07,0,.12.07.16.02.02.05.02.09.02h1.17s.12,0,.16-.02c.31-.05.42-.19.45-.49.02-.35.02-.7.05-1.06,0-.38-.02-.77-.02-1.15,0-.35-.02-.7-.02-1.03,0-.16-.07-.28-.21-.35-.07-.02-.12-.07-.19-.09-.19-.05-.37-.07-.56-.09h-.75c-.07,0-.14,0-.23.07v.52Z"/>
      <path class="cls-2" d="M275.73,159.98h-1.88c-.07.05-.09.12-.09.19,0,.19,0,.35-.02.52,0,.26,0,.49-.02.7,0,.05,0,.07.02.12v.21c0,.52,0,1.01-.02,1.52,0,.35-.02.66-.05.96,0,.16,0,.35-.02.52v.09c-.07,0-.12.02-.16.02-.4.02-.77.02-1.17.02-.3,0-.63,0-.96.02h-.09s-.07-.09-.07-.14c0-.26,0-.49-.02-.73-.02-.45,0-.91.02-1.38.02-.75,0-1.52,0-2.32.02-.66.02-1.34-.02-2.02-.02-.91,0-1.81,0-2.7,0-.4.02-.77.02-1.17,0-.05.02-.12,0-.21,0-.21.02-.42.07-.66.02-.12.05-.26.07-.4.07-.19.14-.4.26-.56.09-.12.19-.23.28-.35.07-.09.16-.16.28-.21.33-.12.63-.23.96-.35.09-.05.21-.07.33-.07h.91c.28,0,.56-.02.84-.02.28.02.56.02.84.07.35.02.73.09,1.06.21.07.05.16.05.23.07.21.05.37.14.49.3.09.12.19.21.28.33.02.05.05.09.07.12.16.28.23.56.26.87.05.3.09.59.09.89s.02.61,0,.91c0,.4,0,.77-.02,1.15-.02.7,0,1.41,0,2.13v1.92c0,.42,0,.82-.02,1.22,0,.3,0,.63-.02.94,0,.4-.02.8-.05,1.22,0,.23-.02.42-.05.63,0,.16-.09.26-.26.26h-1.03c-.07,0-.14,0-.21-.02-.21-.02-.44-.02-.68-.02h-.16c-.05-.09-.09-.19-.09-.28-.05-.63-.02-1.29-.02-1.92,0-.75.02-1.48.02-2.23v-.26s-.02-.05-.02-.09c-.07-.02-.12-.02-.16-.02ZM275.94,157.47v-.8c0-.3,0-.61-.02-.91-.02-.07-.02-.16-.02-.26v-.89c0-.16-.02-.3-.12-.42-.02-.09-.09-.14-.19-.16-.33-.07-.68-.12-1.01-.12-.16,0-.3.05-.44.14-.05.02-.09.05-.12.09-.09.12-.16.23-.21.38-.02.14-.05.3-.05.45-.02.28-.02.56-.05.87v1.45c.02.12.02.21.05.33.73.05,1.43-.02,2.18,0v-.14Z"/>
      <path class="cls-2" d="M287.01,151.73s.07.02.09.02c.07.05.07.14.07.21.02.16.02.33.02.49v1.88c0,.47-.02.94.02,1.41.02.54.02,1.08.02,1.62,0,.12-.02.23-.02.38,0,.07-.02.14,0,.21.02.14.02.26.02.4v1.01c0,.16,0,.33-.02.49-.02.07-.02.16,0,.26.05.28.02.59.02.89,0,.42-.02.84-.05,1.27v.42s.09.05.14.05c.26,0,.49,0,.75.05.38-.02.77.02,1.17-.02.12-.02.23-.02.37-.02.09,0,.19,0,.28.02.07,0,.14.02.19.05.05.19.07,1.62.05,2.04-.05.02-.09.05-.12.05-.23.02-.47.02-.7.02h-1.05c-1.1.02-2.18.02-3.28.02h-.09c-.09-.05-.14-.09-.19-.19v-.66c-.02-.33,0-.68-.02-1.01-.05-.66-.02-1.31-.02-1.97,0-.4.02-.8.02-1.2.02-.59.02-1.15.02-1.74,0-.12,0-.23.02-.35v-.77c0-.12-.02-.26-.02-.38v-1.22c0-.12,0-.23.02-.35v-.12c0-.28.02-.59,0-.84-.02-.21-.02-.42-.02-.63,0-.16.02-.35.02-.52v-1.01c0-.12.05-.19.19-.23.68,0,1.38,0,2.09-.02Z"/>
      <path class="cls-2" d="M307.52,155.57c-.66-.07-1.29-.07-1.92-.02-.05,0-.07-.05-.14-.05-.02-.16-.05-.33-.05-.49v-.52c0-.16-.07-.3-.14-.45-.07-.12-.16-.21-.33-.26-.05,0-.12-.02-.16-.05-.31-.14-.63-.07-.94.05-.19.07-.28.19-.35.38-.05.16-.07.35-.07.54-.02.16,0,.35.02.52.02.26,0,.52.02.77,0,.16,0,.3.05.47,0,.07.02.14.05.19.05.14.14.23.26.28.16.07.33.09.49.09.45.02.89.05,1.31.05.23,0,.45,0,.66.05.26.02.47.14.66.28.12.07.21.16.33.23.09.07.16.14.21.23.12.26.26.52.31.8.02.16.05.35.07.54.02.56.05,1.15.05,1.74v1.52c0,.35-.05.7-.16,1.03-.19.66-.63,1.05-1.27,1.24-.26.07-.54.12-.8.12-.38,0-.75.02-1.12.02-.4.02-.77.02-1.17,0-.3-.02-.59-.05-.89-.14-.05,0-.09,0-.14-.02-.24-.12-.45-.26-.66-.42-.05-.05-.12-.09-.19-.16-.19-.12-.3-.3-.37-.54-.07-.19-.12-.38-.12-.56v-.33c0-.42-.05-.84-.05-1.24.02-.09.02-.16.02-.26v-.38c0-.07,0-.12.07-.16h.14c.28,0,.56,0,.84-.02.35-.05.68-.02,1.03-.07.09-.02.21-.02.3.07,0,.02.02.07.02.12-.05.16-.05.28,0,.42v.26c0,.23,0,.49.07.73.05.16.12.3.26.4.09.05.21.09.33.12.28,0,.54,0,.82-.02.05,0,.07,0,.12-.02l.28-.14c.12-.16.19-.33.16-.52v-.91c0-.23,0-.42-.02-.63-.05-.28-.12-.54-.26-.75-.07-.12-.19-.21-.3-.26-.09-.02-.16-.05-.23-.05-.24-.02-.47-.07-.7-.07-.4,0-.8-.02-1.2-.05-.28-.02-.56-.12-.82-.28-.07-.07-.16-.12-.23-.19-.33-.26-.52-.66-.61-1.06-.02-.12-.05-.26-.05-.38,0-.54,0-1.1-.02-1.64,0-.4-.02-.77-.02-1.15,0-.14.02-.26.02-.4,0-.02.02-.05.02-.07-.02-.33.02-.66.05-.98.05-.4.19-.73.49-.96.09-.07.21-.14.3-.23.19-.12.37-.16.56-.21.49-.12,1.01-.19,1.52-.19.44.02.87.02,1.31.02.24-.02.45.02.68.07.12.02.26.05.38.07.3.07.59.21.87.38.26.16.45.4.54.7.07.26.12.52.14.77v1.88s0,.07-.02.09c-.09.09-.21.07-.31.07Z"/>
      <path class="cls-2" d="M314.69,153.95h-1.08c-.09,0-.19,0-.28-.02-.05-.07-.05-.12-.05-.19,0-.47.02-.98.02-1.45v-.38s.02-.09.02-.16h6.31s.09.02.16.05v1.08c0,.35.02.68-.07,1.03-.05.05-.12.05-.19.05h-1.78v.14c0,.28-.02.56,0,.87.05.54.02,1.08.02,1.62,0,.16-.02.3-.02.47v.23c0,.61-.02,1.24-.02,1.88,0,.26,0,.52.05.75.02.09,0,.19,0,.26v3.23c0,.21,0,.45-.02.66v.4c0,.07,0,.16-.02.23-.02.05-.02.12-.05.19-.07,0-.09.02-.14.02h-1.45c-.12,0-.21,0-.33.02h-.33s-.09-.02-.12-.05c-.02-.05-.02-.09-.02-.14-.05-.98-.07-1.95-.07-2.93.02-1.03.02-2.06.05-3.09,0-.54.02-1.08.02-1.62,0-.33,0-.66-.05-1.01v-.16c.07-.61.05-1.22.05-1.83,0-.02,0-.07-.02-.14h-.59Z"/>
      <path class="cls-2" d="M325.31,157.45c0-.42-.02-.84-.05-1.29,0-.33-.02-.68-.05-1.03v-1.06c0-.26.05-.49.09-.73.07-.33.23-.61.42-.89.02,0,.02-.02.02-.02.16-.26.45-.38.7-.52.24-.12.49-.19.77-.26.16-.05.33-.05.49-.07.49-.02.98-.02,1.45-.02.3,0,.59-.02.87,0,.09,0,.21,0,.31.02h.19c.33.02.66.07.96.21.12.02.19.07.28.09.26.12.49.23.63.47.02.05.07.09.09.12.12.14.19.28.24.45.12.33.16.68.16,1.06v1.38c0,.49-.02,1.03,0,1.52.02.3.02.61.02.91.02,1.13,0,2.23-.02,3.35v.63c0,.09.02.16.02.23v.56c-.02.33,0,.68-.09.98-.09.26-.21.52-.45.68-.05.05-.09.07-.12.12-.35.3-.73.47-1.17.54-.21.02-.42.02-.61.05-.66.07-1.31.05-1.95.05h-.56c-.21-.02-.44-.07-.66-.12-.12-.02-.24-.05-.38-.07-.28-.05-.49-.16-.75-.28-.21-.12-.4-.3-.56-.54-.12-.16-.19-.35-.21-.54-.05-.26-.07-.52-.09-.77-.02-.21,0-.42,0-.66v-2.27c0-.77,0-1.55-.02-2.3ZM330.46,157.56v-3.09c-.02-.26-.14-.45-.38-.54-.19-.12-.4-.16-.61-.16-.3.02-.59,0-.89,0-.42.02-.66.19-.77.56-.02.02-.02.05-.02.07-.07.21-.05.4-.05.56,0,.3,0,.61.05.89.02.38,0,.75,0,1.1,0,.59,0,1.17.02,1.78,0,.14.02.3.02.47,0,.61.02,1.24-.02,1.85-.02.23-.02.49-.02.73v.38c.05.28.23.63.63.61.4,0,.77,0,1.15.02.16,0,.33-.02.47-.07.21-.07.33-.19.38-.4.02-.14.05-.3.05-.45v-4.31Z"/>
      <path class="cls-2" d="M339.93,151.82c.42-.02.87-.02,1.29-.02.14,0,.28-.02.42-.02.23-.02.47.02.7.02.45.02.91,0,1.38,0h.44c.31,0,.59.07.84.23.12.07.26.14.37.21.12.05.23.16.33.26.09.14.19.28.26.42.07.16.12.33.12.52,0,.26.02.52.02.77.07,1.13.07,2.25.05,3.35,0,.33-.02.63-.05.94-.02.14-.05.3-.09.45-.12.28-.26.54-.45.75-.05.07-.12.12-.19.16s-.12.09-.19.14c.02.21.09.42.16.66.09.33.19.68.26,1.03.05.16.07.33.12.52.09.56.21,1.13.35,1.69.02.19.07.35.12.52.05.12.02.23-.09.3-.12.05-.23.07-.35.07h-1.48c-.19,0-.35-.05-.54-.05-.02-.05-.05-.09-.07-.16-.05-.21-.09-.42-.14-.63-.09-.45-.21-.87-.33-1.29-.07-.3-.19-.59-.26-.89-.07-.38-.14-.73-.23-1.08-.02-.09-.05-.19-.07-.26-.19-.05-.66-.05-.94-.02,0,.05-.02.09-.02.14v3.8c0,.14-.05.26-.07.38-.02.05-.07.07-.09.12h-2.23c-.07-.05-.09-.14-.09-.23,0-.21-.02-.42-.02-.61,0-.26.02-.49,0-.73-.07-.94-.07-1.88-.02-2.81.02-.89.02-1.78.05-2.67,0-.56-.02-1.1-.02-1.66,0-.35.02-.73.02-1.1,0-.16.02-.33.02-.49s-.02-.35-.02-.52v-1.34c0-.07,0-.16.02-.23v-.3c0-.09-.02-.19.05-.3h.66ZM341.69,154.44v3.52c0,.07,0,.12.07.16.02.02.05.02.09.02h1.17s.12,0,.16-.02c.31-.05.42-.19.45-.49.02-.35.02-.7.05-1.06,0-.38-.02-.77-.02-1.15,0-.35-.02-.7-.02-1.03,0-.16-.07-.28-.21-.35-.07-.02-.12-.07-.19-.09-.19-.05-.37-.07-.56-.09h-.75c-.07,0-.14,0-.23.07v.52Z"/>
      <path class="cls-2" d="M357.93,153.69c-.09.07-.19.12-.28.12h-.47c-.54,0-1.1.02-1.66.02-.19,0-.4.02-.59.02-.05.02-.05.07-.05.12,0,.45,0,.87-.02,1.29v.26c.02.21.02.42.02.63,0,0,.02.02.02.05h.07c.26.02.52.02.77.02h.59c.14,0,.28-.02.4-.02.26,0,.54.02.8.02.02,0,.05.02.07.02,0,.38.02.73.02,1.1v1.1c-.24.02-.45.07-.66.07h-2.09s-.02.07-.02.12v.59c0,.49,0,.96-.02,1.43-.02.4.02.8,0,1.2,0,.23.02.45.02.68v.12s.09.02.14.02h.63c.4,0,.77.02,1.17.02.23,0,.47.02.73.02.12.02.23.02.33.05.09.7.09,1.38.07,2.09-.05,0-.07.02-.09.02-.68,0-1.36.02-2.02.02h-2.23c-.14,0-.3-.05-.44-.05-.16-.02-.33-.02-.52-.02h-.14s-.05-.07-.07-.09v-.05c-.02-.66-.02-1.31-.02-1.97v-.68c-.05-.56-.05-1.15-.05-1.74.02-.38,0-.73,0-1.1,0-.16,0-.35.02-.52.02-.38,0-.73,0-1.08,0-.23-.02-.45-.02-.68-.02-.16,0-.3,0-.47,0-.38,0-.77.02-1.15.02-.4.05-.8.05-1.2-.02-.35-.02-.7-.02-1.05,0-.3,0-.61.02-.94,0-.09.02-.19.05-.28.02-.07.07-.12.14-.12h4.74c.14,0,.31,0,.45-.02h.19c.02.68,0,1.34-.05,1.99Z"/>
      <path class="cls-5" d="M367.68,166.57c.02-.28.06-.56.04-.82,0-.34-.02-.68-.02-1-.02-.4,0-.78,0-1.18-.02-.58-.02-1.18-.04-1.76,0-.54.02-1.08.02-1.62.02-.72.02-1.44.02-2.16.02-1.64.02-3.29.04-4.95v-2.38c-.02-.5-.04-.98-.04-1.48-.02-.44-.02-.32.26-.58h1.58s.06.1.08.14v4.53c-.02.08-.02.16-.02.24v10.54c0,.08,0,.18.02.26v2.64c-.1.18-.26.2-.44.2-.2.02-.38.04-.58.06h-.68c-.2-.18-.24-.4-.24-.66Z"/>
      <path class="cls-2" d="M378.76,151.73c.07,0,.16,0,.24-.02.33,0,.63-.02.94-.02h1.41c.63,0,1.27,0,1.92.02.21,0,.42.05.63.12.24.07.45.16.63.3.02,0,.05,0,.05.02.21.19.47.38.61.63.07.09.12.21.14.3.05.19.07.35.12.52v.16c0,.09,0,.16.02.23v.4c0,.28,0,.59.02.89.02.54.02,1.08,0,1.62v1.13c0,.28.02.56.02.84,0,.47.02.94,0,1.43-.02.89,0,1.78,0,2.67-.02.47-.19.87-.52,1.2-.24.23-.54.42-.87.52-.09.02-.19.02-.28.02-.21.02-.4.02-.61.05-.33.02-.66.05-.98.05-.23.02-.47,0-.7,0h-2.84c-.09,0-.19-.02-.3-.02-.07,0-.12-.05-.14-.12v-.16c-.02-.59-.02-1.17-.05-1.76v-.68c0-.33,0-.68.02-1.01,0-.63,0-1.24.02-1.85,0-.33,0-.63-.02-.94v-1.27c0-.28,0-.56.02-.84.09-.7.02-1.38.05-2.09,0-.14-.02-.28-.05-.4v-1.34c0-.16.02-.3.02-.45,0-.05.02-.07.02-.12.16-.02.3-.05.44-.05ZM382.54,162.53c.12-.02.24-.05.33-.12.07-.02.12-.09.12-.16,0-.14.02-.28.02-.42.02-.33.05-.68.05-1.01,0-.84.02-1.69-.02-2.51-.02-.54,0-1.08,0-1.59-.02-.54-.02-1.08-.02-1.62,0-.23.02-.45,0-.68-.02-.23-.12-.42-.37-.52-.14-.07-.28-.09-.45-.09h-1.15c-.09,0-.16,0-.21.07,0,.02-.02.05-.02.07.02.84.02,1.66.02,2.49,0,.52.02,1.03.02,1.55-.02.66,0,1.31-.02,1.97-.02.28,0,.56-.02.82,0,.21-.02.42-.05.63,0,.07-.02.14-.02.23,0,.28,0,.56.02.87,0,.02.02.05.02.09.05.09,1.69-.07,1.76-.07Z"/>
      <path class="cls-2" d="M397.23,153.69c-.09.07-.19.12-.28.12h-.47c-.54,0-1.1.02-1.66.02-.19,0-.4.02-.59.02-.05.02-.05.07-.05.12,0,.45,0,.87-.02,1.29v.26c.02.21.02.42.02.63,0,0,.02.02.02.05h.07c.26.02.52.02.77.02h.59c.14,0,.28-.02.4-.02.26,0,.54.02.8.02.02,0,.05.02.07.02,0,.38.02.73.02,1.1v1.1c-.24.02-.45.07-.66.07h-2.09s-.02.07-.02.12v.59c0,.49,0,.96-.02,1.43-.02.4.02.8,0,1.2,0,.23.02.45.02.68v.12s.09.02.14.02h.63c.4,0,.77.02,1.17.02.23,0,.47.02.73.02.12.02.23.02.33.05.09.7.09,1.38.07,2.09-.05,0-.07.02-.09.02-.68,0-1.36.02-2.02.02h-2.23c-.14,0-.3-.05-.44-.05-.16-.02-.33-.02-.52-.02h-.14s-.05-.07-.07-.09v-.05c-.02-.66-.02-1.31-.02-1.97v-.68c-.05-.56-.05-1.15-.05-1.74.02-.38,0-.73,0-1.1,0-.16,0-.35.02-.52.02-.38,0-.73,0-1.08,0-.23-.02-.45-.02-.68-.02-.16,0-.3,0-.47,0-.38,0-.77.02-1.15.02-.4.05-.8.05-1.2-.02-.35-.02-.7-.02-1.05,0-.3,0-.61.02-.94,0-.09.02-.19.05-.28.02-.07.07-.12.14-.12h4.74c.14,0,.31,0,.45-.02h.19c.02.68,0,1.34-.05,1.99Z"/>
      <path class="cls-2" d="M405.77,151.73s.07.02.09.02c.07.05.07.14.07.21.02.16.02.33.02.49v1.88c0,.47-.02.94.02,1.41.02.54.02,1.08.02,1.62,0,.12-.02.23-.02.38,0,.07-.02.14,0,.21.02.14.02.26.02.4v1.01c0,.16,0,.33-.02.49-.02.07-.02.16,0,.26.05.28.02.59.02.89,0,.42-.02.84-.05,1.27v.42s.09.05.14.05c.26,0,.49,0,.75.05.38-.02.77.02,1.17-.02.12-.02.23-.02.37-.02.09,0,.19,0,.28.02.07,0,.14.02.19.05.05.19.07,1.62.05,2.04-.05.02-.09.05-.12.05-.23.02-.47.02-.7.02h-1.05c-1.1.02-2.18.02-3.28.02h-.09c-.09-.05-.14-.09-.19-.19v-.66c-.02-.33,0-.68-.02-1.01-.05-.66-.02-1.31-.02-1.97,0-.4.02-.8.02-1.2.02-.59.02-1.15.02-1.74,0-.12,0-.23.02-.35v-.77c0-.12-.02-.26-.02-.38v-1.22c0-.12,0-.23.02-.35v-.12c0-.28.02-.59,0-.84-.02-.21-.02-.42-.02-.63,0-.16.02-.35.02-.52v-1.01c0-.12.05-.19.19-.23.68,0,1.38,0,2.09-.02Z"/>
      <path class="cls-2" d="M419.62,159.98h-1.88c-.07.05-.09.12-.09.19,0,.19,0,.35-.02.52,0,.26,0,.49-.02.7,0,.05,0,.07.02.12v.21c0,.52,0,1.01-.02,1.52,0,.35-.02.66-.05.96,0,.16,0,.35-.02.52v.09c-.07,0-.12.02-.16.02-.4.02-.77.02-1.17.02-.3,0-.63,0-.96.02h-.09s-.07-.09-.07-.14c0-.26,0-.49-.02-.73-.02-.45,0-.91.02-1.38.02-.75,0-1.52,0-2.32.02-.66.02-1.34-.02-2.02-.02-.91,0-1.81,0-2.7,0-.4.02-.77.02-1.17,0-.05.02-.12,0-.21,0-.21.02-.42.07-.66.02-.12.05-.26.07-.4.07-.19.14-.4.26-.56.09-.12.19-.23.28-.35.07-.09.16-.16.28-.21.33-.12.63-.23.96-.35.09-.05.21-.07.33-.07h.91c.28,0,.56-.02.84-.02.28.02.56.02.84.07.35.02.73.09,1.06.21.07.05.16.05.23.07.21.05.37.14.49.3.09.12.19.21.28.33.02.05.05.09.07.12.16.28.23.56.26.87.05.3.09.59.09.89s.02.61,0,.91c0,.4,0,.77-.02,1.15-.02.7,0,1.41,0,2.13v1.92c0,.42,0,.82-.02,1.22,0,.3,0,.63-.02.94,0,.4-.02.8-.05,1.22,0,.23-.02.42-.05.63,0,.16-.09.26-.26.26h-1.03c-.07,0-.14,0-.21-.02-.21-.02-.44-.02-.68-.02h-.16c-.05-.09-.09-.19-.09-.28-.05-.63-.02-1.29-.02-1.92,0-.75.02-1.48.02-2.23v-.26s-.02-.05-.02-.09c-.07-.02-.12-.02-.16-.02ZM419.83,157.47v-.8c0-.3,0-.61-.02-.91-.02-.07-.02-.16-.02-.26v-.89c0-.16-.02-.3-.12-.42-.02-.09-.09-.14-.19-.16-.33-.07-.68-.12-1.01-.12-.16,0-.3.05-.44.14-.05.02-.09.05-.12.09-.09.12-.16.23-.21.38-.02.14-.05.3-.05.45-.02.28-.02.56-.05.87v1.45c.02.12.02.21.05.33.73.05,1.43-.02,2.18,0v-.14Z"/>
      <path class="cls-2" d="M433.35,157.05v-1.43c0-.94.02-1.87.02-2.81v-.66c0-.07,0-.14.09-.21.05,0,.09-.02.16-.02.37,0,.73-.02,1.1-.02h.84c.07,0,.14,0,.21.02,0,.05.02.07.02.12,0,.09.02.16.02.26,0,.05.02.09.02.14,0,.89-.05,1.78-.02,2.67.02.56.05,1.13.02,1.69-.05.96-.05,1.92-.05,2.91v.56c0,.19.02.35.02.54.07.89.02,1.78.02,2.67-.02.21,0,.42-.02.63-.02.14-.02.26-.02.38,0,.16,0,.3-.07.42-.12.05-.26.02-.4.02-.09,0-.21-.02-.31-.02h-1.38c-.09,0-.19,0-.28-.02-.02-.09,0-.16,0-.26-.02-.52-.02-1.03,0-1.57,0-.16-.05-.28-.12-.42-.12-.21-.23-.42-.33-.63-.16-.38-.38-.75-.61-1.1-.02-.05-.05-.09-.07-.14-.19-.35-.38-.68-.54-1.03-.14-.28-.28-.54-.42-.82-.05-.09-.07-.16-.16-.23v.09c-.02.96-.02,1.95,0,2.91,0,.77,0,1.55-.02,2.3,0,.23-.02.45-.02.66,0,.07-.02.14-.07.21-.19.02-.37.05-.56.05h-1.29c-.14,0-.28-.02-.42-.05-.02,0-.07-.02-.09-.05s-.02-.05-.02-.07c-.05-.7-.05-1.43-.05-2.13-.02-.28-.05-.56-.02-.87.02-.66.02-1.34.02-1.99.02-.45,0-.89.02-1.31.02-.47.02-.94.02-1.41,0-.19-.02-.38-.02-.54v-.89c.02-.14.02-.3.02-.47v-2.91c0-.12.02-.23.12-.3.02-.02.05-.02.09-.02.73,0,1.48-.07,2.18.02.09.09.12.19.16.26.16.42.33.82.47,1.22.12.3.21.63.33.94.21.54.45,1.1.7,1.64.16.35.31.7.47,1.06.05.07.09.16.21.28v-.23Z"/>
      <path class="cls-2" d="M442.52,151.73c.07,0,.16,0,.24-.02.33,0,.63-.02.94-.02h1.41c.63,0,1.27,0,1.92.02.21,0,.42.05.63.12.24.07.45.16.63.3.02,0,.05,0,.05.02.21.19.47.38.61.63.07.09.12.21.14.3.05.19.07.35.12.52v.16c0,.09,0,.16.02.23v.4c0,.28,0,.59.02.89.02.54.02,1.08,0,1.62v1.13c0,.28.02.56.02.84,0,.47.02.94,0,1.43-.02.89,0,1.78,0,2.67-.02.47-.19.87-.52,1.2-.24.23-.54.42-.87.52-.09.02-.19.02-.28.02-.21.02-.4.02-.61.05-.33.02-.66.05-.98.05-.23.02-.47,0-.7,0h-2.84c-.09,0-.19-.02-.3-.02-.07,0-.12-.05-.14-.12v-.16c-.02-.59-.02-1.17-.05-1.76v-.68c0-.33,0-.68.02-1.01,0-.63,0-1.24.02-1.85,0-.33,0-.63-.02-.94v-1.27c0-.28,0-.56.02-.84.09-.7.02-1.38.05-2.09,0-.14-.02-.28-.05-.4v-1.34c0-.16.02-.3.02-.45,0-.05.02-.07.02-.12.16-.02.3-.05.44-.05ZM446.29,162.53c.12-.02.24-.05.33-.12.07-.02.12-.09.12-.16,0-.14.02-.28.02-.42.02-.33.05-.68.05-1.01,0-.84.02-1.69-.02-2.51-.02-.54,0-1.08,0-1.59-.02-.54-.02-1.08-.02-1.62,0-.23.02-.45,0-.68-.02-.23-.12-.42-.37-.52-.14-.07-.28-.09-.45-.09h-1.15c-.09,0-.16,0-.21.07,0,.02-.02.05-.02.07.02.84.02,1.66.02,2.49,0,.52.02,1.03.02,1.55-.02.66,0,1.31-.02,1.97-.02.28,0,.56-.02.82,0,.21-.02.42-.05.63,0,.07-.02.14-.02.23,0,.28,0,.56.02.87,0,.02.02.05.02.09.05.09,1.69-.07,1.76-.07Z"/>
      <path class="cls-2" d="M457.73,164.64c-.02.38-.16.7-.3,1.05-.09.26-.21.49-.33.73-.09.23-.28.4-.54.42-.26,0-.52.02-.77.02-.31-.02-.4-.19-.28-.47.16-.42.33-.84.49-1.27.02-.05.05-.09.05-.14.05-.09,0-.12-.07-.14-.14-.02-.26-.05-.4-.09-.26-.09-.42-.3-.42-.59v-1.62c0-.35.21-.59.56-.63.47-.05.94-.12,1.41-.05.42.07.68.38.68.77,0,.14-.02.28-.02.42v.42c-.02.4-.05.77-.05,1.15Z"/>
      <path class="cls-2" d="M468.47,158.45c-.19.02-.38.05-.54.05h-2.18c0,.12-.02.26-.02.38v1.08c0,.47-.02.94-.02,1.43.02.59.02,1.17.02,1.76,0,.21-.02.42-.05.61v.61c-.02.09,0,.19,0,.28-.02.12-.05.16-.19.16-.07,0-.16,0-.24.02-.56,0-1.1,0-1.64.02h-.21c-.09-.02-.16-.07-.19-.16v-.16c-.02-.28-.02-.56-.02-.84v-.84c0-.23,0-.47.02-.7.02-.07,0-.14.02-.21,0-.52-.02-1.01,0-1.5v-1.17c-.02-.07,0-.14,0-.21,0-.02.02-.07,0-.09-.02-.12,0-.21,0-.33,0-.09.02-.19.02-.28,0-.3,0-.61-.02-.89,0-.35-.02-.68-.02-1.03-.02-.12,0-.21,0-.33v-1.57c.02-.19.02-.38.02-.56,0-.26,0-.54-.02-.8v-.8c0-.07.02-.14.05-.19,0-.12.02-.21.02-.35.05-.07.12-.12.21-.14.12-.02.23-.02.35-.02h3.23c.23,0,.47-.02.68-.02.33.02.63.02.96.02.02,0,.05.02.05.02.07.05.07.12.07.19-.02.14-.02.28,0,.42,0,.12-.02.21-.02.3,0,.38-.02.73-.02,1.08-.07.07-.14.09-.23.12h-.05c-.68,0-1.38.02-2.06.02-.21,0-.42.02-.63.02-.07.05-.07.09-.07.16v2.06s0,.07.02.09.05.02.07.02c.26.02.52.02.77.02h.45c.26,0,.52,0,.8-.02.16-.02.3-.02.45,0,.07,0,.14.02.19.07,0,.73.05,1.45,0,2.18,0,0,0,.02-.02.02Z"/>
      <path class="cls-2" d="M477.3,151.73s.07.02.09.02c.07.05.07.14.07.21.02.16.02.33.02.49v1.88c0,.47-.02.94.02,1.41.02.54.02,1.08.02,1.62,0,.12-.02.23-.02.38,0,.07-.02.14,0,.21.02.14.02.26.02.4v1.01c0,.16,0,.33-.02.49-.02.07-.02.16,0,.26.05.28.02.59.02.89,0,.42-.02.84-.05,1.27v.42s.09.05.14.05c.26,0,.49,0,.75.05.38-.02.77.02,1.17-.02.12-.02.23-.02.37-.02.09,0,.19,0,.28.02.07,0,.14.02.19.05.05.19.07,1.62.05,2.04-.05.02-.09.05-.12.05-.23.02-.47.02-.7.02h-1.05c-1.1.02-2.18.02-3.28.02h-.09c-.09-.05-.14-.09-.19-.19v-.66c-.02-.33,0-.68-.02-1.01-.05-.66-.02-1.31-.02-1.97,0-.4.02-.8.02-1.2.02-.59.02-1.15.02-1.74,0-.12,0-.23.02-.35v-.77c0-.12-.02-.26-.02-.38v-1.22c0-.12,0-.23.02-.35v-.12c0-.28.02-.59,0-.84-.02-.21-.02-.42-.02-.63,0-.16.02-.35.02-.52v-1.01c0-.12.05-.19.19-.23.68,0,1.38,0,2.09-.02Z"/>
    </g>
  </g>
  <g>
    <path class="cls-5" d="M87.95,64.81h27.76v11.43h-16.34v18.24h10.02v11.53h-10.02v28.96h-11.43v-70.15Z"/>
    <path class="cls-5" d="M132.75,111.22v-46.4h11.43v46.4c0,9.22,4.11,13.83,8.12,13.83s8.12-4.61,8.12-13.73v-46.5h11.43v46.5c0,16.54-9.82,24.86-19.54,24.86s-19.54-8.32-19.54-24.96Z"/>
    <path class="cls-5" d="M190.88,64.81h11.43v58.83h16.44v11.32h-27.86v-70.15Z"/>
    <path class="cls-5" d="M235.78,64.81h11.43v58.83h16.44v11.32h-27.86v-70.15Z"/>
  </g>
  <path class="cls-1" d="M306.83,65.34h-25.95c-1.16,0-2.1.94-2.1,2.1v65.58c0,1.16.94,2.1,2.1,2.1h10.68c1.16,0,2.1-.94,2.1-2.1v-24.98h7.27c1.16,0,2.1-.94,2.1-2.1v-10.77c0-1.16-.94-2.1-2.1-2.1h-7.27v-12.86h13.18c1.16,0,2.1-.94,2.1-2.1v-10.68c0-1.16-.94-2.1-2.1-2.1Z"/>
  <rect class="cls-1" x="324.6" y="65.34" width="14.87" height="69.77" rx="2.1" ry="2.1"/>
  <path class="cls-1" d="M383.28,120.33h-13.27v-52.9c0-1.16-.94-2.1-2.1-2.1h-10.68c-1.16,0-2.1.94-2.1,2.1v65.58c0,1.16.94,2.1,2.1,2.1h26.05c1.16,0,2.1-.94,2.1-2.1v-10.59c0-1.16-.94-2.1-2.1-2.1Z"/>
  <path class="cls-1" d="M429.18,120.33h-13.27v-52.9c0-1.16-.94-2.1-2.1-2.1h-10.68c-1.16,0-2.1.94-2.1,2.1v65.58c0,1.16.94,2.1,2.1,2.1h26.05c1.16,0,2.1-.94,2.1-2.1v-10.59c0-1.16-.94-2.1-2.1-2.1Z"/>
  <path class="cls-1" d="M462.18,95.47c-4.3-4.13-8.02-7.7-8.02-11.84,0-3.01,1.84-4.37,3.15-4.37s2.03,1.18,2.03,3.15c0,1.16.94,2.1,2.1,2.1h10.68c1.16,0,2.1-.94,2.1-2.1,0-12.45-8.76-18.12-16.9-18.12-8.91,0-17.93,6.64-17.93,19.33,0,8.44,6.27,14.91,11.81,20.63,4.24,4.37,8.24,8.5,8.24,12.35,0,3.08-1.84,4.46-3.15,4.46s-2.03-1.21-2.03-3.24c0-1.16-.94-2.1-2.1-2.1h-10.68c-1.16,0-2.1.94-2.1,2.1,0,12.45,8.76,18.12,16.9,18.12,8.91,0,17.93-6.64,17.93-19.33,0-9.58-6.39-15.72-12.03-21.14Z"/>
</svg>